<svg width="118" height="111" viewBox="0 0 118 111" fill="none" xmlns="http://www.w3.org/2000/svg">
  <path
    d="M3.348 10.132C2.636 10.132 2.076 9.992 1.668 9.712C1.268 9.432 0.988 9.052 0.828 8.572C0.668 8.084 0.588 7.524 0.588 6.892V3.424C0.588 2.76 0.668 2.184 0.828 1.696C0.988 1.208 1.268 0.832 1.668 0.568C2.076 0.303999 2.636 0.171999 3.348 0.171999C4.02 0.171999 4.544 0.287999 4.92 0.52C5.304 0.744 5.576 1.068 5.736 1.492C5.896 1.916 5.976 2.408 5.976 2.968V3.784H4.272V2.944C4.272 2.672 4.256 2.424 4.224 2.2C4.2 1.976 4.124 1.8 3.996 1.672C3.876 1.536 3.664 1.468 3.36 1.468C3.056 1.468 2.832 1.54 2.688 1.684C2.552 1.82 2.464 2.008 2.424 2.248C2.384 2.48 2.364 2.744 2.364 3.04V7.264C2.364 7.616 2.392 7.908 2.448 8.14C2.504 8.364 2.604 8.536 2.748 8.656C2.9 8.768 3.104 8.824 3.36 8.824C3.656 8.824 3.864 8.756 3.984 8.62C4.112 8.476 4.192 8.288 4.224 8.056C4.256 7.824 4.272 7.564 4.272 7.276V6.4H5.976V7.18C5.976 7.756 5.9 8.268 5.748 8.716C5.596 9.156 5.328 9.504 4.944 9.76C4.568 10.008 4.036 10.132 3.348 10.132ZM7.57247 10V0.279999H11.6525V1.528H9.34847V4.324H11.1605V5.56H9.34847V8.776H11.6765V10H7.57247ZM13.0653 10V0.279999H15.4533C15.8853 0.279999 16.2733 0.319999 16.6173 0.4C16.9693 0.48 17.2693 0.616 17.5173 0.808C17.7733 0.992 17.9693 1.244 18.1053 1.564C18.2413 1.884 18.3093 2.288 18.3093 2.776C18.3093 3.168 18.2533 3.504 18.1413 3.784C18.0373 4.064 17.8813 4.288 17.6733 4.456C17.4653 4.616 17.2053 4.724 16.8933 4.78C17.2773 4.844 17.5933 4.98 17.8413 5.188C18.0973 5.388 18.2853 5.652 18.4053 5.98C18.5333 6.308 18.5973 6.704 18.5973 7.168C18.5973 7.632 18.5373 8.044 18.4173 8.404C18.3053 8.756 18.1333 9.052 17.9013 9.292C17.6773 9.524 17.3933 9.7 17.0493 9.82C16.7133 9.94 16.3173 10 15.8613 10H13.0653ZM14.8413 8.752H15.5133C16.0493 8.752 16.4133 8.624 16.6053 8.368C16.7973 8.104 16.8933 7.7 16.8933 7.156C16.8933 6.764 16.8453 6.448 16.7493 6.208C16.6613 5.96 16.5093 5.776 16.2933 5.656C16.0853 5.536 15.8053 5.476 15.4533 5.476H14.8413V8.752ZM14.8413 4.252H15.4413C15.7933 4.252 16.0653 4.2 16.2573 4.096C16.4493 3.992 16.5813 3.832 16.6533 3.616C16.7333 3.4 16.7733 3.128 16.7733 2.8C16.7733 2.456 16.7133 2.192 16.5933 2.008C16.4813 1.816 16.3093 1.688 16.0773 1.624C15.8453 1.552 15.5493 1.516 15.1893 1.516H14.8413V4.252ZM20.105 10V0.279999H24.185V1.528H21.881V4.324H23.693V5.56H21.881V8.776H24.209V10H20.105ZM25.5978 10V0.279999H28.4538C29.0378 0.279999 29.5098 0.387999 29.8698 0.603999C30.2378 0.819999 30.5058 1.136 30.6738 1.552C30.8498 1.96 30.9378 2.456 30.9378 3.04C30.9378 3.672 30.8298 4.184 30.6138 4.576C30.3978 4.96 30.0938 5.24 29.7018 5.416C29.3178 5.592 28.8618 5.68 28.3338 5.68H27.3738V10H25.5978ZM27.3738 4.432H28.0458C28.3658 4.432 28.6138 4.388 28.7898 4.3C28.9738 4.204 29.0978 4.056 29.1618 3.856C29.2338 3.648 29.2698 3.372 29.2698 3.028C29.2698 2.676 29.2418 2.392 29.1858 2.176C29.1378 1.952 29.0258 1.788 28.8498 1.684C28.6818 1.58 28.4138 1.528 28.0458 1.528H27.3738V4.432ZM34.9259 10.132C34.2379 10.132 33.6899 10.004 33.2819 9.748C32.8739 9.492 32.5819 9.124 32.4059 8.644C32.2299 8.164 32.1419 7.596 32.1419 6.94V3.304C32.1419 2.648 32.2299 2.088 32.4059 1.624C32.5819 1.152 32.8739 0.792 33.2819 0.543999C33.6899 0.295999 34.2379 0.171999 34.9259 0.171999C35.6299 0.171999 36.1819 0.295999 36.5819 0.543999C36.9899 0.792 37.2819 1.152 37.4579 1.624C37.6419 2.088 37.7339 2.648 37.7339 3.304V6.952C37.7339 7.6 37.6419 8.164 37.4579 8.644C37.2819 9.116 36.9899 9.484 36.5819 9.748C36.1819 10.004 35.6299 10.132 34.9259 10.132ZM34.9259 8.824C35.2219 8.824 35.4379 8.76 35.5739 8.632C35.7179 8.504 35.8139 8.328 35.8619 8.104C35.9099 7.88 35.9339 7.636 35.9339 7.372V2.896C35.9339 2.624 35.9099 2.38 35.8619 2.164C35.8139 1.948 35.7179 1.78 35.5739 1.66C35.4379 1.532 35.2219 1.468 34.9259 1.468C34.6459 1.468 34.4339 1.532 34.2899 1.66C34.1459 1.78 34.0499 1.948 34.0019 2.164C33.9539 2.38 33.9299 2.624 33.9299 2.896V7.372C33.9299 7.636 33.9499 7.88 33.9899 8.104C34.0379 8.328 34.1339 8.504 34.2779 8.632C34.4219 8.76 34.6379 8.824 34.9259 8.824ZM39.1076 7.048V5.932H42.0116V7.048H39.1076ZM46.1811 10.132C45.4931 10.132 44.9451 10.004 44.5371 9.748C44.1291 9.492 43.8371 9.124 43.6611 8.644C43.4851 8.164 43.3971 7.596 43.3971 6.94V3.304C43.3971 2.648 43.4851 2.088 43.6611 1.624C43.8371 1.152 44.1291 0.792 44.5371 0.543999C44.9451 0.295999 45.4931 0.171999 46.1811 0.171999C46.8851 0.171999 47.4371 0.295999 47.8371 0.543999C48.2451 0.792 48.5371 1.152 48.7131 1.624C48.8971 2.088 48.9891 2.648 48.9891 3.304V6.952C48.9891 7.6 48.8971 8.164 48.7131 8.644C48.5371 9.116 48.2451 9.484 47.8371 9.748C47.4371 10.004 46.8851 10.132 46.1811 10.132ZM46.1811 8.824C46.4771 8.824 46.6931 8.76 46.8291 8.632C46.9731 8.504 47.0691 8.328 47.1171 8.104C47.1651 7.88 47.1891 7.636 47.1891 7.372V2.896C47.1891 2.624 47.1651 2.38 47.1171 2.164C47.0691 1.948 46.9731 1.78 46.8291 1.66C46.6931 1.532 46.4771 1.468 46.1811 1.468C45.9011 1.468 45.6891 1.532 45.5451 1.66C45.4011 1.78 45.3051 1.948 45.2571 2.164C45.2091 2.38 45.1851 2.624 45.1851 2.896V7.372C45.1851 7.636 45.2051 7.88 45.2451 8.104C45.2931 8.328 45.3891 8.504 45.5331 8.632C45.6771 8.76 45.8931 8.824 46.1811 8.824ZM53.2788 10.132C52.5668 10.132 52.0068 9.992 51.5988 9.712C51.1988 9.432 50.9188 9.052 50.7588 8.572C50.5988 8.084 50.5188 7.524 50.5188 6.892V3.424C50.5188 2.76 50.5988 2.184 50.7588 1.696C50.9188 1.208 51.1988 0.832 51.5988 0.568C52.0068 0.303999 52.5668 0.171999 53.2788 0.171999C53.9508 0.171999 54.4748 0.287999 54.8508 0.52C55.2348 0.744 55.5068 1.068 55.6668 1.492C55.8268 1.916 55.9068 2.408 55.9068 2.968V3.784H54.2028V2.944C54.2028 2.672 54.1868 2.424 54.1548 2.2C54.1308 1.976 54.0548 1.8 53.9268 1.672C53.8068 1.536 53.5948 1.468 53.2908 1.468C52.9868 1.468 52.7628 1.54 52.6188 1.684C52.4828 1.82 52.3948 2.008 52.3548 2.248C52.3148 2.48 52.2948 2.744 52.2948 3.04V7.264C52.2948 7.616 52.3228 7.908 52.3788 8.14C52.4348 8.364 52.5348 8.536 52.6788 8.656C52.8308 8.768 53.0348 8.824 53.2908 8.824C53.5868 8.824 53.7948 8.756 53.9148 8.62C54.0428 8.476 54.1228 8.288 54.1548 8.056C54.1868 7.824 54.2028 7.564 54.2028 7.276V6.4H55.9068V7.18C55.9068 7.756 55.8308 8.268 55.6788 8.716C55.5268 9.156 55.2588 9.504 54.8748 9.76C54.4988 10.008 53.9668 10.132 53.2788 10.132ZM57.5033 10V0.279999H61.5833V1.528H59.2793V4.324H61.0913V5.56H59.2793V8.776H61.6073V10H57.5033ZM63.9681 10V1.588H62.4201V0.279999H67.2681V1.588H65.7441V10H63.9681ZM68.4543 10V0.279999H69.9063V6.412L72.5703 0.279999H73.7583V10H72.2943V3.772L69.6183 10H68.4543ZM75.6346 10V0.279999H77.3986V4.348H79.3906V0.279999H81.1546V10H79.3906V5.608H77.3986V10H75.6346ZM85.6178 10.132C84.9058 10.132 84.3458 9.992 83.9378 9.712C83.5378 9.432 83.2578 9.052 83.0978 8.572C82.9378 8.084 82.8578 7.524 82.8578 6.892V3.424C82.8578 2.76 82.9378 2.184 83.0978 1.696C83.2578 1.208 83.5378 0.832 83.9378 0.568C84.3458 0.303999 84.9058 0.171999 85.6178 0.171999C86.2898 0.171999 86.8138 0.287999 87.1898 0.52C87.5738 0.744 87.8458 1.068 88.0058 1.492C88.1658 1.916 88.2458 2.408 88.2458 2.968V3.784H86.5418V2.944C86.5418 2.672 86.5258 2.424 86.4938 2.2C86.4698 1.976 86.3938 1.8 86.2658 1.672C86.1458 1.536 85.9338 1.468 85.6298 1.468C85.3258 1.468 85.1018 1.54 84.9578 1.684C84.8218 1.82 84.7338 2.008 84.6938 2.248C84.6538 2.48 84.6338 2.744 84.6338 3.04V7.264C84.6338 7.616 84.6618 7.908 84.7178 8.14C84.7738 8.364 84.8738 8.536 85.0178 8.656C85.1698 8.768 85.3738 8.824 85.6298 8.824C85.9258 8.824 86.1338 8.756 86.2538 8.62C86.3818 8.476 86.4618 8.288 86.4938 8.056C86.5258 7.824 86.5418 7.564 86.5418 7.276V6.4H88.2458V7.18C88.2458 7.756 88.1698 8.268 88.0178 8.716C87.8658 9.156 87.5978 9.504 87.2138 9.76C86.8378 10.008 86.3058 10.132 85.6178 10.132ZM89.8663 10V0.279999H91.6303V4.36H91.9903L93.5623 0.279999H95.3263L93.4783 4.864L95.4703 10H93.6703L91.9903 5.524H91.6303V10H89.8663ZM96.2025 10L98.1465 0.279999H100.043L101.987 10H100.343L99.9585 7.756H98.2665L97.8705 10H96.2025ZM98.4465 6.628H99.7665L99.1065 2.548L98.4465 6.628ZM102.724 10L104.668 5.656C104.268 5.448 103.944 5.128 103.696 4.696C103.448 4.256 103.324 3.716 103.324 3.076C103.324 2.436 103.44 1.912 103.672 1.504C103.904 1.088 104.252 0.779999 104.716 0.58C105.188 0.379999 105.784 0.279999 106.504 0.279999H108.748V10H106.984V6.064H106.42C106.404 6.064 106.368 6.064 106.312 6.064C106.256 6.064 106.22 6.064 106.204 6.064L104.656 10H102.724ZM106.588 4.816H106.984V1.516H106.552C106.032 1.516 105.64 1.644 105.376 1.9C105.112 2.148 104.98 2.54 104.98 3.076C104.98 3.628 105.096 4.056 105.328 4.36C105.568 4.664 105.988 4.816 106.588 4.816ZM0.732 24V14.28H3.588C4.172 14.28 4.644 14.388 5.004 14.604C5.372 14.82 5.64 15.136 5.808 15.552C5.984 15.96 6.072 16.456 6.072 17.04C6.072 17.672 5.964 18.184 5.748 18.576C5.532 18.96 5.228 19.24 4.836 19.416C4.452 19.592 3.996 19.68 3.468 19.68H2.508V24H0.732ZM2.508 18.432H3.18C3.5 18.432 3.748 18.388 3.924 18.3C4.108 18.204 4.232 18.056 4.296 17.856C4.368 17.648 4.404 17.372 4.404 17.028C4.404 16.676 4.376 16.392 4.32 16.176C4.272 15.952 4.16 15.788 3.984 15.684C3.816 15.58 3.548 15.528 3.18 15.528H2.508V18.432ZM7.42013 24V14.28H11.5001V15.528H9.19613V18.324H11.0081V19.56H9.19613V22.776H11.5241V24H7.42013ZM12.9369 24V14.28H17.0889V15.588H14.7009V24H12.9369ZM18.3594 24V14.28H19.8114V20.412L22.4754 14.28H23.6634V24H22.1994V17.772L19.5234 24H18.3594ZM28.1558 24.132C27.4678 24.132 26.9198 24.004 26.5118 23.748C26.1038 23.492 25.8118 23.124 25.6358 22.644C25.4598 22.164 25.3718 21.596 25.3718 20.94V17.304C25.3718 16.648 25.4598 16.088 25.6358 15.624C25.8118 15.152 26.1038 14.792 26.5118 14.544C26.9198 14.296 27.4678 14.172 28.1558 14.172C28.8598 14.172 29.4118 14.296 29.8118 14.544C30.2198 14.792 30.5118 15.152 30.6878 15.624C30.8718 16.088 30.9638 16.648 30.9638 17.304V20.952C30.9638 21.6 30.8718 22.164 30.6878 22.644C30.5118 23.116 30.2198 23.484 29.8118 23.748C29.4118 24.004 28.8598 24.132 28.1558 24.132ZM28.1558 22.824C28.4518 22.824 28.6678 22.76 28.8038 22.632C28.9478 22.504 29.0438 22.328 29.0918 22.104C29.1398 21.88 29.1638 21.636 29.1638 21.372V16.896C29.1638 16.624 29.1398 16.38 29.0918 16.164C29.0438 15.948 28.9478 15.78 28.8038 15.66C28.6678 15.532 28.4518 15.468 28.1558 15.468C27.8758 15.468 27.6638 15.532 27.5198 15.66C27.3758 15.78 27.2798 15.948 27.2318 16.164C27.1838 16.38 27.1598 16.624 27.1598 16.896V21.372C27.1598 21.636 27.1798 21.88 27.2198 22.104C27.2678 22.328 27.3638 22.504 27.5078 22.632C27.6518 22.76 27.8678 22.824 28.1558 22.824ZM32.6615 24V14.28H34.4255V18.348H36.4175V14.28H38.1815V24H36.4175V19.608H34.4255V24H32.6615ZM39.5367 24L41.4807 14.28H43.3767L45.3207 24H43.6767L43.2927 21.756H41.6007L41.2047 24H39.5367ZM41.7807 20.628H43.1007L42.4407 16.548L41.7807 20.628ZM45.9863 24V22.728C46.2103 22.736 46.3983 22.724 46.5503 22.692C46.7103 22.652 46.8423 22.568 46.9463 22.44C47.0583 22.312 47.1503 22.116 47.2223 21.852C47.2943 21.58 47.3543 21.216 47.4023 20.76C47.4503 20.304 47.5023 19.724 47.5583 19.02L47.8703 14.28H52.5983V24H50.8343V15.612H49.4423L49.2263 19.236C49.1783 19.948 49.1223 20.576 49.0583 21.12C49.0023 21.664 48.9103 22.128 48.7823 22.512C48.6623 22.888 48.4903 23.192 48.2663 23.424C48.0423 23.656 47.7463 23.82 47.3783 23.916C47.0103 24.004 46.5463 24.032 45.9863 24ZM54.4837 24V14.28H56.2477V18.36H56.6797C57.3357 18.36 57.8837 18.452 58.3237 18.636C58.7637 18.812 59.0957 19.108 59.3197 19.524C59.5437 19.932 59.6557 20.484 59.6557 21.18C59.6557 21.724 59.5877 22.18 59.4517 22.548C59.3157 22.908 59.1117 23.196 58.8397 23.412C58.5757 23.628 58.2557 23.78 57.8797 23.868C57.5037 23.956 57.0797 24 56.6077 24H54.4837ZM56.2477 22.8H56.6077C56.9517 22.8 57.2237 22.752 57.4237 22.656C57.6317 22.56 57.7837 22.392 57.8797 22.152C57.9757 21.904 58.0237 21.568 58.0237 21.144C58.0157 20.64 57.9117 20.256 57.7117 19.992C57.5197 19.728 57.1437 19.596 56.5837 19.596H56.2477V22.8ZM61.1601 24V14.28H62.9241V18.348H64.9161V14.28H66.6801V24H64.9161V19.608H62.9241V24H61.1601ZM68.0353 24L69.9793 14.28H71.8753L73.8193 24H72.1753L71.7913 21.756H70.0993L69.7033 24H68.0353ZM70.2793 20.628H71.5993L70.9393 16.548L70.2793 20.628ZM74.5568 24L76.5008 19.656C76.1008 19.448 75.7768 19.128 75.5288 18.696C75.2808 18.256 75.1568 17.716 75.1568 17.076C75.1568 16.436 75.2728 15.912 75.5048 15.504C75.7368 15.088 76.0848 14.78 76.5488 14.58C77.0208 14.38 77.6168 14.28 78.3368 14.28H80.5808V24H78.8168V20.064H78.2528C78.2368 20.064 78.2008 20.064 78.1448 20.064C78.0888 20.064 78.0528 20.064 78.0368 20.064L76.4888 24H74.5568ZM78.4208 18.816H78.8168V15.516H78.3848C77.8648 15.516 77.4728 15.644 77.2088 15.9C76.9448 16.148 76.8128 16.54 76.8128 17.076C76.8128 17.628 76.9288 18.056 77.1608 18.36C77.4008 18.664 77.8208 18.816 78.4208 18.816ZM3.372 38.132C2.684 38.132 2.136 38.004 1.728 37.748C1.32 37.492 1.028 37.124 0.852 36.644C0.676 36.164 0.588 35.596 0.588 34.94V31.304C0.588 30.648 0.676 30.088 0.852 29.624C1.028 29.152 1.32 28.792 1.728 28.544C2.136 28.296 2.684 28.172 3.372 28.172C4.076 28.172 4.628 28.296 5.028 28.544C5.436 28.792 5.728 29.152 5.904 29.624C6.088 30.088 6.18 30.648 6.18 31.304V34.952C6.18 35.6 6.088 36.164 5.904 36.644C5.728 37.116 5.436 37.484 5.028 37.748C4.628 38.004 4.076 38.132 3.372 38.132ZM3.372 36.824C3.668 36.824 3.884 36.76 4.02 36.632C4.164 36.504 4.26 36.328 4.308 36.104C4.356 35.88 4.38 35.636 4.38 35.372V30.896C4.38 30.624 4.356 30.38 4.308 30.164C4.26 29.948 4.164 29.78 4.02 29.66C3.884 29.532 3.668 29.468 3.372 29.468C3.092 29.468 2.88 29.532 2.736 29.66C2.592 29.78 2.496 29.948 2.448 30.164C2.4 30.38 2.376 30.624 2.376 30.896V35.372C2.376 35.636 2.396 35.88 2.436 36.104C2.484 36.328 2.58 36.504 2.724 36.632C2.868 36.76 3.084 36.824 3.372 36.824ZM7.87772 38V28.28H12.3897V29.6H9.64172V32.36H10.0257C10.6817 32.36 11.2297 32.452 11.6697 32.636C12.1177 32.812 12.4537 33.108 12.6777 33.524C12.9017 33.932 13.0137 34.484 13.0137 35.18C13.0137 35.724 12.9457 36.18 12.8097 36.548C12.6737 36.908 12.4697 37.196 12.1977 37.412C11.9337 37.628 11.6137 37.78 11.2377 37.868C10.8617 37.956 10.4337 38 9.95372 38H7.87772ZM9.64172 36.8H9.96572C10.3017 36.8 10.5737 36.752 10.7817 36.656C10.9897 36.56 11.1417 36.392 11.2377 36.152C11.3337 35.904 11.3777 35.568 11.3697 35.144C11.3617 34.64 11.2577 34.256 11.0577 33.992C10.8657 33.728 10.4937 33.596 9.94172 33.596H9.64172V36.8ZM22.2824 39.848L22.1264 38H14.5784V28.28H16.2824V36.776H17.7464V28.28H19.4384V36.776H20.8304V28.28H22.5464V36.776H23.4944V39.848H22.2824ZM24.9682 38V28.28H29.0483V29.528H26.7442V32.324H28.5563V33.56H26.7442V36.776H29.0723V38H24.9682ZM33.0771 38.132C32.3651 38.132 31.8051 37.992 31.3971 37.712C30.9971 37.432 30.7171 37.052 30.5571 36.572C30.3971 36.084 30.3171 35.524 30.3171 34.892V31.424C30.3171 30.76 30.3971 30.184 30.5571 29.696C30.7171 29.208 30.9971 28.832 31.3971 28.568C31.8051 28.304 32.3651 28.172 33.0771 28.172C33.7491 28.172 34.2731 28.288 34.6491 28.52C35.0331 28.744 35.3051 29.068 35.4651 29.492C35.6251 29.916 35.7051 30.408 35.7051 30.968V31.784H34.0011V30.944C34.0011 30.672 33.9851 30.424 33.9531 30.2C33.9291 29.976 33.8531 29.8 33.7251 29.672C33.6051 29.536 33.3931 29.468 33.0891 29.468C32.7851 29.468 32.5611 29.54 32.4171 29.684C32.2811 29.82 32.1931 30.008 32.1531 30.248C32.1131 30.48 32.0931 30.744 32.0931 31.04V35.264C32.0931 35.616 32.1211 35.908 32.1771 36.14C32.2331 36.364 32.3331 36.536 32.4771 36.656C32.6291 36.768 32.8331 36.824 33.0891 36.824C33.3851 36.824 33.5931 36.756 33.7131 36.62C33.8411 36.476 33.9211 36.288 33.9531 36.056C33.9851 35.824 34.0011 35.564 34.0011 35.276V34.4H35.7051V35.18C35.7051 35.756 35.6291 36.268 35.4771 36.716C35.3251 37.156 35.0571 37.504 34.6731 37.76C34.2971 38.008 33.7651 38.132 33.0771 38.132ZM38.2735 38V29.588H36.7255V28.28H41.5735V29.588H40.0495V38H38.2735ZM42.7357 38V28.28H45.1238C45.5558 28.28 45.9438 28.32 46.2878 28.4C46.6398 28.48 46.9398 28.616 47.1877 28.808C47.4438 28.992 47.6398 29.244 47.7758 29.564C47.9118 29.884 47.9798 30.288 47.9798 30.776C47.9798 31.168 47.9238 31.504 47.8118 31.784C47.7078 32.064 47.5518 32.288 47.3438 32.456C47.1358 32.616 46.8758 32.724 46.5638 32.78C46.9478 32.844 47.2638 32.98 47.5118 33.188C47.7678 33.388 47.9558 33.652 48.0758 33.98C48.2038 34.308 48.2678 34.704 48.2678 35.168C48.2678 35.632 48.2078 36.044 48.0878 36.404C47.9758 36.756 47.8038 37.052 47.5718 37.292C47.3478 37.524 47.0638 37.7 46.7197 37.82C46.3837 37.94 45.9877 38 45.5317 38H42.7357ZM44.5117 36.752H45.1838C45.7198 36.752 46.0838 36.624 46.2757 36.368C46.4678 36.104 46.5638 35.7 46.5638 35.156C46.5638 34.764 46.5158 34.448 46.4198 34.208C46.3318 33.96 46.1798 33.776 45.9638 33.656C45.7558 33.536 45.4758 33.476 45.1238 33.476H44.5117V36.752ZM44.5117 32.252H45.1117C45.4637 32.252 45.7357 32.2 45.9278 32.096C46.1198 31.992 46.2517 31.832 46.3238 31.616C46.4037 31.4 46.4437 31.128 46.4437 30.8C46.4437 30.456 46.3837 30.192 46.2638 30.008C46.1518 29.816 45.9798 29.688 45.7477 29.624C45.5158 29.552 45.2198 29.516 44.8597 29.516H44.5117V32.252ZM49.7754 38V28.28H53.8554V29.528H51.5514V32.324H53.3634V33.56H51.5514V36.776H53.8794V38H49.7754ZM55.2923 38V28.28H57.0563V32.348H59.0483V28.28H60.8123V38H59.0483V33.608H57.0563V38H55.2923ZM62.6835 38V28.28H64.4475V32.348H66.4395V28.28H68.2035V38H66.4395V33.608H64.4475V38H62.6835ZM69.5587 38L71.5027 28.28H73.3987L75.3427 38H73.6987L73.3147 35.756H71.6227L71.2267 38H69.5587ZM71.8027 34.628H73.1227L72.4627 30.548L71.8027 34.628ZM76.0803 38L78.0243 33.656C77.6243 33.448 77.3003 33.128 77.0523 32.696C76.8043 32.256 76.6803 31.716 76.6803 31.076C76.6803 30.436 76.7963 29.912 77.0283 29.504C77.2603 29.088 77.6083 28.78 78.0723 28.58C78.5443 28.38 79.1403 28.28 79.8603 28.28H82.1043V38H80.3403V34.064H79.7763C79.7603 34.064 79.7243 34.064 79.6683 34.064C79.6123 34.064 79.5763 34.064 79.5603 34.064L78.0123 38H76.0803ZM79.9443 32.816H80.3403V29.516H79.9083C79.3883 29.516 78.9963 29.644 78.7323 29.9C78.4683 30.148 78.3363 30.54 78.3363 31.076C78.3363 31.628 78.4523 32.056 78.6843 32.36C78.9243 32.664 79.3443 32.816 79.9443 32.816ZM3.372 52.132C2.684 52.132 2.136 52.004 1.728 51.748C1.32 51.492 1.028 51.124 0.852 50.644C0.676 50.164 0.588 49.596 0.588 48.94V45.304C0.588 44.648 0.676 44.088 0.852 43.624C1.028 43.152 1.32 42.792 1.728 42.544C2.136 42.296 2.684 42.172 3.372 42.172C4.076 42.172 4.628 42.296 5.028 42.544C5.436 42.792 5.728 43.152 5.904 43.624C6.088 44.088 6.18 44.648 6.18 45.304V48.952C6.18 49.6 6.088 50.164 5.904 50.644C5.728 51.116 5.436 51.484 5.028 51.748C4.628 52.004 4.076 52.132 3.372 52.132ZM3.372 50.824C3.668 50.824 3.884 50.76 4.02 50.632C4.164 50.504 4.26 50.328 4.308 50.104C4.356 49.88 4.38 49.636 4.38 49.372V44.896C4.38 44.624 4.356 44.38 4.308 44.164C4.26 43.948 4.164 43.78 4.02 43.66C3.884 43.532 3.668 43.468 3.372 43.468C3.092 43.468 2.88 43.532 2.736 43.66C2.592 43.78 2.496 43.948 2.448 44.164C2.4 44.38 2.376 44.624 2.376 44.896V49.372C2.376 49.636 2.396 49.88 2.436 50.104C2.484 50.328 2.58 50.504 2.724 50.632C2.868 50.76 3.084 50.824 3.372 50.824ZM7.85372 52V42.28H10.7097C11.2937 42.28 11.7657 42.388 12.1257 42.604C12.4937 42.82 12.7617 43.136 12.9297 43.552C13.1057 43.96 13.1937 44.456 13.1937 45.04C13.1937 45.672 13.0857 46.184 12.8697 46.576C12.6537 46.96 12.3497 47.24 11.9577 47.416C11.5737 47.592 11.1177 47.68 10.5897 47.68H9.62972V52H7.85372ZM9.62972 46.432H10.3017C10.6217 46.432 10.8697 46.388 11.0457 46.3C11.2297 46.204 11.3537 46.056 11.4177 45.856C11.4897 45.648 11.5257 45.372 11.5257 45.028C11.5257 44.676 11.4977 44.392 11.4417 44.176C11.3937 43.952 11.2817 43.788 11.1057 43.684C10.9377 43.58 10.6697 43.528 10.3017 43.528H9.62972V46.432ZM14.5658 52V42.28H18.7178V43.588H16.3298V52H14.5658ZM18.6755 52L20.6195 42.28H22.5155L24.4595 52H22.8155L22.4315 49.756H20.7395L20.3435 52H18.6755ZM20.9195 48.628H22.2395L21.5795 44.548L20.9195 48.628ZM25.821 52V42.28H27.585V46.348H29.577V42.28H31.341V52H29.577V47.608H27.585V52H25.821ZM33.2122 52V42.28H34.6642V48.412L37.3282 42.28H38.5162V52H37.0522V45.772L34.3762 52H33.2122ZM42.6726 52.144C42.0726 52.144 41.5846 52.032 41.2086 51.808C40.8406 51.576 40.5726 51.252 40.4046 50.836C40.2366 50.412 40.1526 49.92 40.1526 49.36V49.024H41.8086C41.8086 49.064 41.8086 49.12 41.8086 49.192C41.8086 49.256 41.8086 49.32 41.8086 49.384C41.8166 49.832 41.8806 50.172 42.0006 50.404C42.1206 50.636 42.3526 50.752 42.6966 50.752C42.9446 50.752 43.1286 50.692 43.2486 50.572C43.3766 50.452 43.4606 50.28 43.5006 50.056C43.5486 49.824 43.5726 49.548 43.5726 49.228C43.5726 48.732 43.4806 48.34 43.2966 48.052C43.1206 47.756 42.7646 47.596 42.2286 47.572C42.2046 47.564 42.1646 47.56 42.1086 47.56C42.0606 47.56 42.0046 47.56 41.9406 47.56C41.8766 47.56 41.8166 47.56 41.7606 47.56V46.384C41.8086 46.384 41.8566 46.384 41.9046 46.384C41.9526 46.384 42.0006 46.384 42.0486 46.384C42.1046 46.384 42.1486 46.384 42.1806 46.384C42.7246 46.36 43.0926 46.216 43.2846 45.952C43.4766 45.688 43.5726 45.304 43.5726 44.8C43.5726 44.392 43.5006 44.072 43.3566 43.84C43.2206 43.608 42.9726 43.492 42.6126 43.492C42.2766 43.492 42.0366 43.612 41.8926 43.852C41.7566 44.092 41.6766 44.408 41.6526 44.8C41.6526 44.832 41.6526 44.892 41.6526 44.98C41.6526 45.06 41.6526 45.144 41.6526 45.232H39.9966V44.764C39.9966 44.212 40.1006 43.744 40.3086 43.36C40.5166 42.968 40.8126 42.672 41.1966 42.472C41.5886 42.264 42.0566 42.16 42.6006 42.16C43.1526 42.16 43.6206 42.264 44.0046 42.472C44.3966 42.672 44.6966 42.964 44.9046 43.348C45.1126 43.724 45.2166 44.188 45.2166 44.74C45.2166 45.316 45.0926 45.792 44.8446 46.168C44.6046 46.544 44.3006 46.784 43.9326 46.888C44.1806 46.984 44.4006 47.128 44.5926 47.32C44.7926 47.504 44.9446 47.752 45.0486 48.064C45.1606 48.368 45.2166 48.748 45.2166 49.204C45.2166 49.788 45.1326 50.304 44.9646 50.752C44.7966 51.192 44.5246 51.536 44.1486 51.784C43.7806 52.024 43.2886 52.144 42.6726 52.144ZM46.26 52L48.204 42.28H50.1L52.044 52H50.4L50.016 49.756H48.324L47.928 52H46.26ZM48.504 48.628H49.824L49.164 44.548L48.504 48.628ZM58.8655 53.848L58.7095 52H53.4175V42.28H55.1815V50.776H57.3655V42.28H59.1295V50.776H60.0775V53.848H58.8655ZM61.5702 52V42.28H63.0222V48.412L65.6862 42.28H66.8742V52H65.4102V45.772L62.7342 52H61.5702ZM68.1265 52L70.0705 47.656C69.6705 47.448 69.3465 47.128 69.0985 46.696C68.8505 46.256 68.7265 45.716 68.7265 45.076C68.7265 44.436 68.8425 43.912 69.0745 43.504C69.3065 43.088 69.6545 42.78 70.1185 42.58C70.5905 42.38 71.1865 42.28 71.9065 42.28H74.1505V52H72.3865V48.064H71.8225C71.8065 48.064 71.7705 48.064 71.7145 48.064C71.6585 48.064 71.6225 48.064 71.6065 48.064L70.0585 52H68.1265ZM71.9905 46.816H72.3865V43.516H71.9545C71.4345 43.516 71.0425 43.644 70.7785 43.9C70.5145 44.148 70.3825 44.54 70.3825 45.076C70.3825 45.628 70.4985 46.056 70.7305 46.36C70.9705 46.664 71.3905 46.816 71.9905 46.816ZM5.04 65.532L2.868 62.76V62.112L5.04 59.34V61.08L3.936 62.436L5.04 63.792V65.532ZM2.58 65.532L0.408 62.76V62.112L2.58 59.34V61.08L1.464 62.436L2.58 63.792V65.532ZM6.26016 66L8.20416 56.28H10.1002L12.0442 66H10.4002L10.0162 63.756H8.32416L7.92816 66H6.26016ZM8.50416 62.628H9.82416L9.16416 58.548L8.50416 62.628ZM15.9977 66.132C15.2857 66.132 14.7257 65.992 14.3177 65.712C13.9177 65.432 13.6377 65.052 13.4777 64.572C13.3177 64.084 13.2377 63.524 13.2377 62.892V59.424C13.2377 58.76 13.3177 58.184 13.4777 57.696C13.6377 57.208 13.9177 56.832 14.3177 56.568C14.7257 56.304 15.2857 56.172 15.9977 56.172C16.6697 56.172 17.1937 56.288 17.5697 56.52C17.9537 56.744 18.2257 57.068 18.3857 57.492C18.5457 57.916 18.6257 58.408 18.6257 58.968V59.784H16.9217V58.944C16.9217 58.672 16.9057 58.424 16.8737 58.2C16.8497 57.976 16.7737 57.8 16.6457 57.672C16.5257 57.536 16.3137 57.468 16.0097 57.468C15.7057 57.468 15.4817 57.54 15.3377 57.684C15.2017 57.82 15.1137 58.008 15.0737 58.248C15.0337 58.48 15.0137 58.744 15.0137 59.04V63.264C15.0137 63.616 15.0417 63.908 15.0977 64.14C15.1537 64.364 15.2537 64.536 15.3977 64.656C15.5497 64.768 15.7537 64.824 16.0097 64.824C16.3057 64.824 16.5137 64.756 16.6337 64.62C16.7617 64.476 16.8417 64.288 16.8737 64.056C16.9057 63.824 16.9217 63.564 16.9217 63.276V62.4H18.6257V63.18C18.6257 63.756 18.5497 64.268 18.3977 64.716C18.2457 65.156 17.9777 65.504 17.5937 65.76C17.2177 66.008 16.6857 66.132 15.9977 66.132ZM22.8382 66.132C22.1262 66.132 21.5662 65.992 21.1582 65.712C20.7582 65.432 20.4782 65.052 20.3182 64.572C20.1582 64.084 20.0782 63.524 20.0782 62.892V59.424C20.0782 58.76 20.1582 58.184 20.3182 57.696C20.4782 57.208 20.7582 56.832 21.1582 56.568C21.5662 56.304 22.1262 56.172 22.8382 56.172C23.5102 56.172 24.0342 56.288 24.4102 56.52C24.7942 56.744 25.0662 57.068 25.2262 57.492C25.3862 57.916 25.4662 58.408 25.4662 58.968V59.784H23.7622V58.944C23.7622 58.672 23.7462 58.424 23.7142 58.2C23.6902 57.976 23.6142 57.8 23.4862 57.672C23.3662 57.536 23.1542 57.468 22.8502 57.468C22.5462 57.468 22.3222 57.54 22.1782 57.684C22.0422 57.82 21.9542 58.008 21.9142 58.248C21.8742 58.48 21.8542 58.744 21.8542 59.04V63.264C21.8542 63.616 21.8822 63.908 21.9382 64.14C21.9942 64.364 22.0942 64.536 22.2382 64.656C22.3902 64.768 22.5942 64.824 22.8502 64.824C23.1462 64.824 23.3542 64.756 23.4742 64.62C23.6022 64.476 23.6822 64.288 23.7142 64.056C23.7462 63.824 23.7622 63.564 23.7622 63.276V62.4H25.4662V63.18C25.4662 63.756 25.3902 64.268 25.2382 64.716C25.0862 65.156 24.8182 65.504 24.4342 65.76C24.0582 66.008 23.5262 66.132 22.8382 66.132ZM29.7026 66.132C29.0146 66.132 28.4666 66.004 28.0586 65.748C27.6506 65.492 27.3586 65.124 27.1826 64.644C27.0066 64.164 26.9186 63.596 26.9186 62.94V59.304C26.9186 58.648 27.0066 58.088 27.1826 57.624C27.3586 57.152 27.6506 56.792 28.0586 56.544C28.4666 56.296 29.0146 56.172 29.7026 56.172C30.4066 56.172 30.9586 56.296 31.3586 56.544C31.7666 56.792 32.0586 57.152 32.2346 57.624C32.4186 58.088 32.5106 58.648 32.5106 59.304V62.952C32.5106 63.6 32.4186 64.164 32.2346 64.644C32.0586 65.116 31.7666 65.484 31.3586 65.748C30.9586 66.004 30.4066 66.132 29.7026 66.132ZM29.7026 64.824C29.9986 64.824 30.2146 64.76 30.3506 64.632C30.4946 64.504 30.5906 64.328 30.6386 64.104C30.6866 63.88 30.7106 63.636 30.7106 63.372V58.896C30.7106 58.624 30.6866 58.38 30.6386 58.164C30.5906 57.948 30.4946 57.78 30.3506 57.66C30.2146 57.532 29.9986 57.468 29.7026 57.468C29.4226 57.468 29.2106 57.532 29.0666 57.66C28.9226 57.78 28.8266 57.948 28.7786 58.164C28.7306 58.38 28.7066 58.624 28.7066 58.896V63.372C28.7066 63.636 28.7266 63.88 28.7666 64.104C28.8146 64.328 28.9106 64.504 29.0546 64.632C29.1986 64.76 29.4146 64.824 29.7026 64.824ZM39.6683 67.848L39.5123 66H34.2203V56.28H35.9843V64.776H38.1683V56.28H39.9323V64.776H40.8803V67.848H39.6683ZM42.373 66V56.28H43.825V62.412L46.489 56.28H47.677V66H46.213V59.772L43.537 66H42.373ZM49.0373 66L50.9813 56.28H52.8773L54.8213 66H53.1773L52.7933 63.756H51.1013L50.7053 66H49.0373ZM51.2813 62.628H52.6013L51.9413 58.548L51.2813 62.628ZM61.6429 67.848L61.4869 66H56.1949V56.28H57.9589V64.776H60.1429V56.28H61.9069V64.776H62.8549V67.848H61.6429ZM64.3476 66V56.28H65.7996V62.412L68.4636 56.28H69.6516V66H68.1876V59.772L65.5116 66H64.3476ZM70.9039 66L72.8479 61.656C72.4479 61.448 72.1239 61.128 71.8759 60.696C71.6279 60.256 71.5039 59.716 71.5039 59.076C71.5039 58.436 71.6199 57.912 71.8519 57.504C72.0839 57.088 72.4319 56.78 72.8959 56.58C73.3679 56.38 73.9639 56.28 74.6839 56.28H76.9279V66H75.1639V62.064H74.5999C74.5839 62.064 74.5479 62.064 74.4919 62.064C74.4359 62.064 74.3999 62.064 74.3839 62.064L72.8359 66H70.9039ZM74.7679 60.816H75.1639V57.516H74.7319C74.2119 57.516 73.8199 57.644 73.5559 57.9C73.2919 58.148 73.1599 58.54 73.1599 59.076C73.1599 59.628 73.2759 60.056 73.5079 60.36C73.7479 60.664 74.1679 60.816 74.7679 60.816ZM81.3839 66L83.5319 61.08L81.5159 56.28H83.1839L84.9479 60.9H85.0319V56.28H86.4599V60.9H86.5559L88.3079 56.28H89.9879L87.9719 61.08L90.1199 66H88.4879L86.5679 61.212H86.4599V66H85.0319V61.212H84.9359L83.0159 66H81.3839ZM91.2636 66V56.28H95.3436V57.528H93.0396V60.324H94.8516V61.56H93.0396V64.776H95.3676V66H91.2636ZM96.7564 66V56.28H99.6124C100.196 56.28 100.668 56.388 101.028 56.604C101.396 56.82 101.664 57.136 101.832 57.552C102.008 57.96 102.096 58.456 102.096 59.04C102.096 59.672 101.988 60.184 101.772 60.576C101.556 60.96 101.252 61.24 100.86 61.416C100.476 61.592 100.02 61.68 99.4924 61.68H98.5324V66H96.7564ZM98.5324 60.432H99.2044C99.5244 60.432 99.7724 60.388 99.9484 60.3C100.132 60.204 100.256 60.056 100.32 59.856C100.392 59.648 100.428 59.372 100.428 59.028C100.428 58.676 100.4 58.392 100.344 58.176C100.296 57.952 100.184 57.788 100.008 57.684C99.8404 57.58 99.5724 57.528 99.2044 57.528H98.5324V60.432ZM104.417 66V57.588H102.869V56.28H107.717V57.588H106.193V66H104.417ZM108.879 66V56.28H111.267C111.699 56.28 112.087 56.32 112.431 56.4C112.783 56.48 113.083 56.616 113.331 56.808C113.587 56.992 113.783 57.244 113.919 57.564C114.055 57.884 114.123 58.288 114.123 58.776C114.123 59.168 114.067 59.504 113.955 59.784C113.851 60.064 113.695 60.288 113.487 60.456C113.279 60.616 113.019 60.724 112.707 60.78C113.091 60.844 113.407 60.98 113.655 61.188C113.911 61.388 114.099 61.652 114.219 61.98C114.347 62.308 114.411 62.704 114.411 63.168C114.411 63.632 114.351 64.044 114.231 64.404C114.119 64.756 113.947 65.052 113.715 65.292C113.491 65.524 113.207 65.7 112.863 65.82C112.527 65.94 112.131 66 111.675 66H108.879ZM110.655 64.752H111.327C111.863 64.752 112.227 64.624 112.419 64.368C112.611 64.104 112.707 63.7 112.707 63.156C112.707 62.764 112.659 62.448 112.563 62.208C112.475 61.96 112.323 61.776 112.107 61.656C111.899 61.536 111.619 61.476 111.267 61.476H110.655V64.752ZM110.655 60.252H111.255C111.607 60.252 111.879 60.2 112.071 60.096C112.263 59.992 112.395 59.832 112.467 59.616C112.547 59.4 112.587 59.128 112.587 58.8C112.587 58.456 112.527 58.192 112.407 58.008C112.295 57.816 112.123 57.688 111.891 57.624C111.659 57.552 111.363 57.516 111.003 57.516H110.655V60.252ZM0.732 80V70.28H6.336V80H4.584V71.54H2.484V80H0.732ZM10.7984 80.132C10.1104 80.132 9.56241 80.004 9.15441 79.748C8.74641 79.492 8.45441 79.124 8.27841 78.644C8.10241 78.164 8.01441 77.596 8.01441 76.94V73.304C8.01441 72.648 8.10241 72.088 8.27841 71.624C8.45441 71.152 8.74641 70.792 9.15441 70.544C9.56241 70.296 10.1104 70.172 10.7984 70.172C11.5024 70.172 12.0544 70.296 12.4544 70.544C12.8624 70.792 13.1544 71.152 13.3304 71.624C13.5144 72.088 13.6064 72.648 13.6064 73.304V76.952C13.6064 77.6 13.5144 78.164 13.3304 78.644C13.1544 79.116 12.8624 79.484 12.4544 79.748C12.0544 80.004 11.5024 80.132 10.7984 80.132ZM10.7984 78.824C11.0944 78.824 11.3104 78.76 11.4464 78.632C11.5904 78.504 11.6864 78.328 11.7344 78.104C11.7824 77.88 11.8064 77.636 11.8064 77.372V72.896C11.8064 72.624 11.7824 72.38 11.7344 72.164C11.6864 71.948 11.5904 71.78 11.4464 71.66C11.3104 71.532 11.0944 71.468 10.7984 71.468C10.5184 71.468 10.3064 71.532 10.1624 71.66C10.0184 71.78 9.92241 71.948 9.87441 72.164C9.82641 72.38 9.80241 72.624 9.80241 72.896V77.372C9.80241 77.636 9.82241 77.88 9.86241 78.104C9.91041 78.328 10.0064 78.504 10.1504 78.632C10.2944 78.76 10.5104 78.824 10.7984 78.824ZM14.6081 80V78.728C14.8321 78.736 15.0201 78.724 15.1721 78.692C15.3321 78.652 15.4641 78.568 15.5681 78.44C15.6801 78.312 15.7721 78.116 15.8441 77.852C15.9161 77.58 15.9761 77.216 16.0241 76.76C16.0721 76.304 16.1241 75.724 16.1801 75.02L16.4921 70.28H21.2201V80H19.4561V71.612H18.0641L17.8481 75.236C17.8001 75.948 17.7441 76.576 17.6801 77.12C17.6241 77.664 17.5321 78.128 17.4041 78.512C17.2841 78.888 17.1121 79.192 16.8881 79.424C16.6641 79.656 16.3681 79.82 16.0001 79.916C15.6321 80.004 15.1681 80.032 14.6081 80ZM23.1055 80V70.28H24.5575V76.412L27.2215 70.28H28.4095V80H26.9455V73.772L24.2695 80H23.1055ZM31.1518 80V71.588H29.6038V70.28H34.4518V71.588H32.9278V80H31.1518ZM35.638 80V70.28H37.09V76.412L39.754 70.28H40.942V80H39.478V73.772L36.802 80H35.638ZM46.5143 80V75.752C46.2743 75.8 46.0543 75.836 45.8543 75.86C45.6543 75.884 45.4583 75.896 45.2663 75.896C44.4183 75.896 43.7663 75.7 43.3103 75.308C42.8543 74.916 42.6263 74.32 42.6263 73.52V70.28H44.4023V73.28C44.4023 73.632 44.4383 73.92 44.5103 74.144C44.5903 74.368 44.7183 74.532 44.8943 74.636C45.0783 74.732 45.3183 74.78 45.6143 74.78C45.7423 74.78 45.8823 74.772 46.0343 74.756C46.1943 74.732 46.3543 74.704 46.5143 74.672V70.28H48.2783V80H46.5143ZM50.127 80V70.28H54.207V71.528H51.903V74.324H53.715V75.56H51.903V78.776H54.231V80H50.127ZM58.2358 80.132C57.5238 80.132 56.9638 79.992 56.5558 79.712C56.1558 79.432 55.8758 79.052 55.7158 78.572C55.5558 78.084 55.4758 77.524 55.4758 76.892V73.424C55.4758 72.76 55.5558 72.184 55.7158 71.696C55.8758 71.208 56.1558 70.832 56.5558 70.568C56.9638 70.304 57.5238 70.172 58.2358 70.172C58.9078 70.172 59.4318 70.288 59.8078 70.52C60.1918 70.744 60.4638 71.068 60.6238 71.492C60.7838 71.916 60.8638 72.408 60.8638 72.968V73.784H59.1598V72.944C59.1598 72.672 59.1438 72.424 59.1118 72.2C59.0878 71.976 59.0118 71.8 58.8838 71.672C58.7638 71.536 58.5518 71.468 58.2478 71.468C57.9438 71.468 57.7198 71.54 57.5758 71.684C57.4398 71.82 57.3518 72.008 57.3118 72.248C57.2718 72.48 57.2518 72.744 57.2518 73.04V77.264C57.2518 77.616 57.2798 77.908 57.3358 78.14C57.3918 78.364 57.4918 78.536 57.6358 78.656C57.7878 78.768 57.9918 78.824 58.2478 78.824C58.5438 78.824 58.7518 78.756 58.8718 78.62C58.9998 78.476 59.0798 78.288 59.1118 78.056C59.1438 77.824 59.1598 77.564 59.1598 77.276V76.4H60.8638V77.18C60.8638 77.756 60.7878 78.268 60.6358 78.716C60.4838 79.156 60.2158 79.504 59.8318 79.76C59.4558 80.008 58.9238 80.132 58.2358 80.132ZM62.4843 80V70.28H64.2483V74.36H64.6083L66.1803 70.28H67.9443L66.0963 74.864L68.0883 80H66.2883L64.6083 75.524H64.2483V80H62.4843ZM69.3365 80V70.28H70.7885V76.412L73.4525 70.28H74.6405V80H73.1765V73.772L70.5005 80H69.3365ZM75.8808 80L77.8368 74.84L75.9408 70.28H77.5968L78.8568 73.292L79.9608 70.28H81.4968L79.6248 75.176L81.6408 80H79.9848L78.6048 76.736L77.4048 80H75.8808ZM0.732 94V84.28H3.588C4.172 84.28 4.644 84.388 5.004 84.604C5.372 84.82 5.64 85.136 5.808 85.552C5.984 85.96 6.072 86.456 6.072 87.04C6.072 87.672 5.964 88.184 5.748 88.576C5.532 88.96 5.228 89.24 4.836 89.416C4.452 89.592 3.996 89.68 3.468 89.68H2.508V94H0.732ZM2.508 88.432H3.18C3.5 88.432 3.748 88.388 3.924 88.3C4.108 88.204 4.232 88.056 4.296 87.856C4.368 87.648 4.404 87.372 4.404 87.028C4.404 86.676 4.376 86.392 4.32 86.176C4.272 85.952 4.16 85.788 3.984 85.684C3.816 85.58 3.548 85.528 3.18 85.528H2.508V88.432ZM7.42013 94V84.28H11.5001V85.528H9.19613V88.324H11.0081V89.56H9.19613V92.776H11.5241V94H7.42013ZM12.9129 94V84.28H18.5169V94H16.7649V85.54H14.6649V94H12.9129ZM20.3393 94V84.28H23.1953C23.7793 84.28 24.2513 84.388 24.6113 84.604C24.9793 84.82 25.2473 85.136 25.4153 85.552C25.5913 85.96 25.6793 86.456 25.6793 87.04C25.6793 87.672 25.5713 88.184 25.3553 88.576C25.1393 88.96 24.8353 89.24 24.4433 89.416C24.0593 89.592 23.6033 89.68 23.0753 89.68H22.1153V94H20.3393ZM22.1153 88.432H22.7873C23.1073 88.432 23.3553 88.388 23.5313 88.3C23.7153 88.204 23.8393 88.056 23.9033 87.856C23.9753 87.648 24.0113 87.372 24.0113 87.028C24.0113 86.676 23.9833 86.392 23.9273 86.176C23.8793 85.952 23.7673 85.788 23.5913 85.684C23.4233 85.58 23.1553 85.528 22.7873 85.528H22.1153V88.432ZM27.0275 94V84.28H31.1075V85.528H28.8035V88.324H30.6155V89.56H28.8035V92.776H31.1315V94H27.0275ZM35.1363 94.132C34.4243 94.132 33.8643 93.992 33.4563 93.712C33.0563 93.432 32.7763 93.052 32.6163 92.572C32.4563 92.084 32.3763 91.524 32.3763 90.892V87.424C32.3763 86.76 32.4563 86.184 32.6163 85.696C32.7763 85.208 33.0563 84.832 33.4563 84.568C33.8643 84.304 34.4243 84.172 35.1363 84.172C35.8083 84.172 36.3323 84.288 36.7083 84.52C37.0923 84.744 37.3643 85.068 37.5243 85.492C37.6843 85.916 37.7643 86.408 37.7643 86.968V87.784H36.0603V86.944C36.0603 86.672 36.0443 86.424 36.0123 86.2C35.9883 85.976 35.9123 85.8 35.7843 85.672C35.6643 85.536 35.4523 85.468 35.1483 85.468C34.8443 85.468 34.6203 85.54 34.4763 85.684C34.3403 85.82 34.2523 86.008 34.2123 86.248C34.1723 86.48 34.1523 86.744 34.1523 87.04V91.264C34.1523 91.616 34.1803 91.908 34.2363 92.14C34.2923 92.364 34.3923 92.536 34.5363 92.656C34.6883 92.768 34.8923 92.824 35.1483 92.824C35.4443 92.824 35.6523 92.756 35.7723 92.62C35.9003 92.476 35.9803 92.288 36.0123 92.056C36.0443 91.824 36.0603 91.564 36.0603 91.276V90.4H37.7643V91.18C37.7643 91.756 37.6883 92.268 37.5363 92.716C37.3843 93.156 37.1163 93.504 36.7323 93.76C36.3563 94.008 35.8243 94.132 35.1363 94.132ZM41.9768 94.132C41.2648 94.132 40.7048 93.992 40.2968 93.712C39.8967 93.432 39.6167 93.052 39.4567 92.572C39.2967 92.084 39.2167 91.524 39.2167 90.892V87.424C39.2167 86.76 39.2967 86.184 39.4567 85.696C39.6167 85.208 39.8967 84.832 40.2968 84.568C40.7048 84.304 41.2648 84.172 41.9768 84.172C42.6487 84.172 43.1727 84.288 43.5488 84.52C43.9328 84.744 44.2048 85.068 44.3648 85.492C44.5248 85.916 44.6048 86.408 44.6048 86.968V87.784H42.9007V86.944C42.9007 86.672 42.8848 86.424 42.8528 86.2C42.8288 85.976 42.7527 85.8 42.6247 85.672C42.5048 85.536 42.2928 85.468 41.9887 85.468C41.6847 85.468 41.4607 85.54 41.3167 85.684C41.1808 85.82 41.0928 86.008 41.0527 86.248C41.0127 86.48 40.9927 86.744 40.9927 87.04V91.264C40.9927 91.616 41.0207 91.908 41.0767 92.14C41.1327 92.364 41.2327 92.536 41.3768 92.656C41.5288 92.768 41.7327 92.824 41.9887 92.824C42.2847 92.824 42.4927 92.756 42.6128 92.62C42.7408 92.476 42.8208 92.288 42.8528 92.056C42.8848 91.824 42.9007 91.564 42.9007 91.276V90.4H44.6048V91.18C44.6048 91.756 44.5288 92.268 44.3768 92.716C44.2248 93.156 43.9568 93.504 43.5728 93.76C43.1968 94.008 42.6647 94.132 41.9768 94.132ZM46.2252 94V84.28H47.6772V90.412L50.3412 84.28H51.5292V94H50.0652V87.772L47.3892 94H46.2252ZM53.4055 94V84.28H54.8575V90.412L57.5215 84.28H58.7095V94H57.2455V87.772L54.5695 94H53.4055ZM56.2015 83.512C55.6255 83.512 55.1895 83.356 54.8935 83.044C54.6055 82.724 54.4615 82.296 54.4615 81.76H55.3975C55.3975 82.048 55.4575 82.268 55.5775 82.42C55.6975 82.572 55.9055 82.648 56.2015 82.648C56.4895 82.648 56.6935 82.572 56.8135 82.42C56.9335 82.26 56.9935 82.04 56.9935 81.76H57.9295C57.9295 82.296 57.7815 82.724 57.4855 83.044C57.1975 83.356 56.7695 83.512 56.2015 83.512ZM68.1478 93.532L65.9758 90.76V90.112L68.1478 87.34V89.08L67.0438 90.436L68.1478 91.792V93.532ZM65.6878 93.532L63.5158 90.76V90.112L65.6878 87.34V89.08L64.5718 90.436L65.6878 91.792V93.532ZM69.884 94V84.28H71.648V88.348H73.64V84.28H75.404V94H73.64V89.608H71.648V94H69.884ZM79.8912 94.132C79.2032 94.132 78.6552 94.004 78.2472 93.748C77.8392 93.492 77.5472 93.124 77.3712 92.644C77.1952 92.164 77.1072 91.596 77.1072 90.94V87.304C77.1072 86.648 77.1952 86.088 77.3712 85.624C77.5472 85.152 77.8392 84.792 78.2472 84.544C78.6552 84.296 79.2032 84.172 79.8912 84.172C80.5952 84.172 81.1472 84.296 81.5472 84.544C81.9552 84.792 82.2472 85.152 82.4232 85.624C82.6072 86.088 82.6992 86.648 82.6992 87.304V90.952C82.6992 91.6 82.6072 92.164 82.4232 92.644C82.2472 93.116 81.9552 93.484 81.5472 93.748C81.1472 94.004 80.5952 94.132 79.8912 94.132ZM79.8912 92.824C80.1872 92.824 80.4032 92.76 80.5392 92.632C80.6832 92.504 80.7792 92.328 80.8272 92.104C80.8752 91.88 80.8992 91.636 80.8992 91.372V86.896C80.8992 86.624 80.8752 86.38 80.8272 86.164C80.7792 85.948 80.6832 85.78 80.5392 85.66C80.4032 85.532 80.1872 85.468 79.8912 85.468C79.6112 85.468 79.3992 85.532 79.2552 85.66C79.1112 85.78 79.0152 85.948 78.9672 86.164C78.9192 86.38 78.8952 86.624 78.8952 86.896V91.372C78.8952 91.636 78.9152 91.88 78.9552 92.104C79.0032 92.328 79.0992 92.504 79.2432 92.632C79.3872 92.76 79.6032 92.824 79.8912 92.824ZM84.3489 94L84.5169 84.28H86.3529L87.7329 91.012L89.1729 84.28H90.9489L91.1289 94H89.8089L89.6649 87.244L88.2849 94H87.2169L85.8129 87.22L85.6809 94H84.3489ZM92.4323 94L94.3763 84.28H96.2723L98.2163 94H96.5723L96.1883 91.756H94.4963L94.1003 94H92.4323ZM94.6763 90.628H95.9963L95.3363 86.548L94.6763 90.628ZM99.5539 94V84.28H102.41C102.994 84.28 103.466 84.388 103.826 84.604C104.194 84.82 104.462 85.136 104.63 85.552C104.806 85.96 104.894 86.456 104.894 87.04C104.894 87.672 104.786 88.184 104.57 88.576C104.354 88.96 104.05 89.24 103.658 89.416C103.274 89.592 102.818 89.68 102.29 89.68H101.33V94H99.5539ZM101.33 88.432H102.002C102.322 88.432 102.57 88.388 102.746 88.3C102.93 88.204 103.054 88.056 103.118 87.856C103.19 87.648 103.226 87.372 103.226 87.028C103.226 86.676 103.198 86.392 103.142 86.176C103.094 85.952 102.982 85.788 102.806 85.684C102.638 85.58 102.37 85.528 102.002 85.528H101.33V88.432ZM105.188 94L107.132 84.28H109.028L110.972 94H109.328L108.944 91.756H107.252L106.856 94H105.188ZM107.432 90.628H108.752L108.092 86.548L107.432 90.628ZM112.333 94V84.28H114.097V88.348H116.089V84.28H117.853V94H116.089V89.608H114.097V94H112.333ZM3.432 110.232C2.936 110.232 2.528 110.12 2.208 109.896C1.888 109.68 1.632 109.376 1.44 108.984C1.248 108.6 1.104 108.156 1.008 107.652C0.92 107.14 0.864 106.592 0.84 106.008C0.816 105.424 0.804 104.832 0.804 104.232C0.804 103.608 0.816 103 0.84 102.408C0.864 101.816 0.92 101.264 1.008 100.752C1.104 100.24 1.248 99.792 1.44 99.408C1.632 99.024 1.888 98.724 2.208 98.508C2.528 98.292 2.936 98.184 3.432 98.184V99.312C3.184 99.312 2.984 99.44 2.832 99.696C2.688 99.952 2.58 100.304 2.508 100.752C2.436 101.2 2.388 101.724 2.364 102.324C2.348 102.916 2.34 103.552 2.34 104.232C2.34 104.928 2.348 105.572 2.364 106.164C2.388 106.756 2.436 107.272 2.508 107.712C2.588 108.152 2.7 108.492 2.844 108.732C2.988 108.98 3.184 109.108 3.432 109.116V110.232ZM4.92403 108V98.28H10.528V108H8.77603V99.54H6.67603V108H4.92403ZM11.8584 108L13.8024 98.28H15.6984L17.6424 108H15.9984L15.6144 105.756H13.9224L13.5264 108H11.8584ZM14.1024 104.628H15.4224L14.7624 100.548L14.1024 104.628ZM18.956 108L19.124 98.28H20.96L22.34 105.012L23.78 98.28H25.556L25.736 108H24.416L24.272 101.244L22.892 108H21.824L20.42 101.22L20.288 108H18.956ZM26.9314 108L28.8754 103.656C28.4754 103.448 28.1514 103.128 27.9034 102.696C27.6554 102.256 27.5314 101.716 27.5314 101.076C27.5314 100.436 27.6474 99.912 27.8794 99.504C28.1114 99.088 28.4594 98.78 28.9234 98.58C29.3954 98.38 29.9914 98.28 30.7114 98.28H32.9554V108H31.1914V104.064H30.6274C30.6114 104.064 30.5754 104.064 30.5194 104.064C30.4634 104.064 30.4274 104.064 30.4114 104.064L28.8634 108H26.9314ZM30.7954 102.816H31.1914V99.516H30.7594C30.2394 99.516 29.8474 99.644 29.5834 99.9C29.3194 100.148 29.1874 100.54 29.1874 101.076C29.1874 101.628 29.3034 102.056 29.5354 102.36C29.7754 102.664 30.1954 102.816 30.7954 102.816ZM35.6954 108V99.588H34.1474V98.28H38.9954V99.588H37.4714V108H35.6954ZM40.1816 108V98.28H41.9456V102.36H42.3776C43.0336 102.36 43.5816 102.452 44.0216 102.636C44.4616 102.812 44.7936 103.108 45.0176 103.524C45.2416 103.932 45.3536 104.484 45.3536 105.18C45.3536 105.724 45.2856 106.18 45.1496 106.548C45.0136 106.908 44.8096 107.196 44.5376 107.412C44.2736 107.628 43.9536 107.78 43.5776 107.868C43.2016 107.956 42.7776 108 42.3056 108H40.1816ZM41.9456 106.8H42.3056C42.6496 106.8 42.9216 106.752 43.1216 106.656C43.3296 106.56 43.4816 106.392 43.5776 106.152C43.6736 105.904 43.7216 105.568 43.7216 105.144C43.7136 104.64 43.6096 104.256 43.4096 103.992C43.2176 103.728 42.8416 103.596 42.2816 103.596H41.9456V106.8ZM50.136 108V98.28H51.588V104.412L54.252 98.28H55.44V108H53.976V101.772L51.3 108H50.136ZM57.2683 108L57.4363 98.28H59.2723L60.6523 105.012L62.0923 98.28H63.8683L64.0483 108H62.7283L62.5843 101.244L61.2043 108H60.1363L58.7323 101.22L58.6003 108H57.2683ZM65.8437 108V98.28H69.9237V99.528H67.6197V102.324H69.4317V103.56H67.6197V106.776H69.9477V108H65.8437ZM71.3605 108V98.28H73.1245V102.348H75.1165V98.28H76.8805V108H75.1165V103.608H73.1245V108H71.3605ZM78.3798 110.232V109.104C78.6278 109.104 78.8238 108.98 78.9678 108.732C79.1198 108.484 79.2318 108.14 79.3038 107.7C79.3758 107.252 79.4238 106.732 79.4478 106.14C79.4718 105.548 79.4838 104.908 79.4838 104.22C79.4838 103.532 79.4718 102.892 79.4478 102.3C79.4238 101.7 79.3758 101.18 79.3038 100.74C79.2398 100.292 79.1318 99.944 78.9798 99.696C78.8358 99.44 78.6358 99.308 78.3798 99.3V98.184C78.8758 98.184 79.2838 98.292 79.6038 98.508C79.9318 98.716 80.1918 99.016 80.3838 99.408C80.5758 99.792 80.7158 100.24 80.8038 100.752C80.8918 101.256 80.9478 101.804 80.9718 102.396C80.9958 102.98 81.0078 103.588 81.0078 104.22C81.0078 104.82 80.9958 105.412 80.9718 105.996C80.9478 106.58 80.8918 107.128 80.8038 107.64C80.7158 108.152 80.5758 108.6 80.3838 108.984C80.1918 109.376 79.9318 109.68 79.6038 109.896C79.2838 110.12 78.8758 110.232 78.3798 110.232ZM82.5068 107.532V105.792L83.6828 104.424L82.5068 103.08V101.34L84.7388 104.112V104.76L82.5068 107.532ZM84.9788 107.532V105.792L86.1428 104.424L84.9788 103.08V101.34L87.2108 104.112V104.76L84.9788 107.532ZM88.7262 107.532V105.792L89.9022 104.424L88.7262 103.08V101.34L90.9582 104.112V104.76L88.7262 107.532ZM91.1982 107.532V105.792L92.3622 104.424L91.1982 103.08V101.34L93.4302 104.112V104.76L91.1982 107.532ZM94.8976 108V106.356H96.4816V108H94.8976Z"
    fill="#C8082B" />
</svg>