<svg width="59" height="56" viewBox="0 0 59 56" fill="none" xmlns="http://www.w3.org/2000/svg">
<path d="M1.674 5.066C1.318 5.066 1.038 4.996 0.834 4.856C0.634 4.716 0.494 4.526 0.414 4.286C0.334 4.042 0.294 3.762 0.294 3.446V1.712C0.294 1.38 0.334 1.092 0.414 0.848C0.494 0.604 0.634 0.416 0.834 0.284C1.038 0.152 1.318 0.0859996 1.674 0.0859996C2.01 0.0859996 2.272 0.144 2.46 0.26C2.652 0.372 2.788 0.534 2.868 0.746C2.948 0.958 2.988 1.204 2.988 1.484V1.892H2.136V1.472C2.136 1.336 2.128 1.212 2.112 1.1C2.1 0.988 2.062 0.9 1.998 0.836C1.938 0.768 1.832 0.734 1.68 0.734C1.528 0.734 1.416 0.77 1.344 0.842C1.276 0.91 1.232 1.004 1.212 1.124C1.192 1.24 1.182 1.372 1.182 1.52V3.632C1.182 3.808 1.196 3.954 1.224 4.07C1.252 4.182 1.302 4.268 1.374 4.328C1.45 4.384 1.552 4.412 1.68 4.412C1.828 4.412 1.932 4.378 1.992 4.31C2.056 4.238 2.096 4.144 2.112 4.028C2.128 3.912 2.136 3.782 2.136 3.638V3.2H2.988V3.59C2.988 3.878 2.95 4.134 2.874 4.358C2.798 4.578 2.664 4.752 2.472 4.88C2.284 5.004 2.018 5.066 1.674 5.066ZM3.78623 5V0.14H5.82623V0.764H4.67423V2.162H5.58023V2.78H4.67423V4.388H5.83823V5H3.78623ZM6.53264 5V0.14H7.72664C7.94264 0.14 8.13664 0.16 8.30864 0.2C8.48464 0.24 8.63464 0.308 8.75864 0.404C8.88664 0.496 8.98464 0.622 9.05264 0.782C9.12064 0.942 9.15464 1.144 9.15464 1.388C9.15464 1.584 9.12664 1.752 9.07064 1.892C9.01864 2.032 8.94064 2.144 8.83664 2.228C8.73264 2.308 8.60264 2.362 8.44664 2.39C8.63864 2.422 8.79664 2.49 8.92064 2.594C9.04864 2.694 9.14264 2.826 9.20264 2.99C9.26664 3.154 9.29864 3.352 9.29864 3.584C9.29864 3.816 9.26864 4.022 9.20864 4.202C9.15264 4.378 9.06664 4.526 8.95064 4.646C8.83864 4.762 8.69664 4.85 8.52464 4.91C8.35664 4.97 8.15864 5 7.93064 5H6.53264ZM7.42064 4.376H7.75664C8.02464 4.376 8.20664 4.312 8.30264 4.184C8.39864 4.052 8.44664 3.85 8.44664 3.578C8.44664 3.382 8.42264 3.224 8.37464 3.104C8.33064 2.98 8.25464 2.888 8.14664 2.828C8.04264 2.768 7.90264 2.738 7.72664 2.738H7.42064V4.376ZM7.42064 2.126H7.72064C7.89664 2.126 8.03264 2.1 8.12864 2.048C8.22464 1.996 8.29064 1.916 8.32664 1.808C8.36664 1.7 8.38664 1.564 8.38664 1.4C8.38664 1.228 8.35664 1.096 8.29664 1.004C8.24064 0.908 8.15464 0.844 8.03864 0.812C7.92264 0.776 7.77464 0.758 7.59464 0.758H7.42064V2.126ZM10.0525 5V0.14H12.0925V0.764H10.9405V2.162H11.8465V2.78H10.9405V4.388H12.1045V5H10.0525ZM12.7989 5V0.14H14.2269C14.5189 0.14 14.7549 0.194 14.9349 0.302C15.1189 0.41 15.2529 0.568 15.3369 0.776C15.4249 0.98 15.4689 1.228 15.4689 1.52C15.4689 1.836 15.4149 2.092 15.3069 2.288C15.1989 2.48 15.0469 2.62 14.8509 2.708C14.6589 2.796 14.4309 2.84 14.1669 2.84H13.6869V5H12.7989ZM13.6869 2.216H14.0229C14.1829 2.216 14.3069 2.194 14.3949 2.15C14.4869 2.102 14.5489 2.028 14.5809 1.928C14.6169 1.824 14.6349 1.686 14.6349 1.514C14.6349 1.338 14.6209 1.196 14.5929 1.088C14.5689 0.976 14.5129 0.894 14.4249 0.842C14.3409 0.79 14.2069 0.764 14.0229 0.764H13.6869V2.216ZM17.463 5.066C17.119 5.066 16.845 5.002 16.641 4.874C16.437 4.746 16.291 4.562 16.203 4.322C16.115 4.082 16.071 3.798 16.071 3.47V1.652C16.071 1.324 16.115 1.044 16.203 0.812C16.291 0.576 16.437 0.396 16.641 0.272C16.845 0.148 17.119 0.0859996 17.463 0.0859996C17.815 0.0859996 18.091 0.148 18.291 0.272C18.495 0.396 18.641 0.576 18.729 0.812C18.821 1.044 18.867 1.324 18.867 1.652V3.476C18.867 3.8 18.821 4.082 18.729 4.322C18.641 4.558 18.495 4.742 18.291 4.874C18.091 5.002 17.815 5.066 17.463 5.066ZM17.463 4.412C17.611 4.412 17.719 4.38 17.787 4.316C17.859 4.252 17.907 4.164 17.931 4.052C17.955 3.94 17.967 3.818 17.967 3.686V1.448C17.967 1.312 17.955 1.19 17.931 1.082C17.907 0.974 17.859 0.89 17.787 0.83C17.719 0.766 17.611 0.734 17.463 0.734C17.323 0.734 17.217 0.766 17.145 0.83C17.073 0.89 17.025 0.974 17.001 1.082C16.977 1.19 16.965 1.312 16.965 1.448V3.686C16.965 3.818 16.975 3.94 16.995 4.052C17.019 4.164 17.067 4.252 17.139 4.316C17.211 4.38 17.319 4.412 17.463 4.412ZM19.5538 3.524V2.966H21.0058V3.524H19.5538ZM23.0905 5.066C22.7465 5.066 22.4725 5.002 22.2685 4.874C22.0645 4.746 21.9185 4.562 21.8305 4.322C21.7425 4.082 21.6985 3.798 21.6985 3.47V1.652C21.6985 1.324 21.7425 1.044 21.8305 0.812C21.9185 0.576 22.0645 0.396 22.2685 0.272C22.4725 0.148 22.7465 0.0859996 23.0905 0.0859996C23.4425 0.0859996 23.7185 0.148 23.9185 0.272C24.1225 0.396 24.2685 0.576 24.3565 0.812C24.4485 1.044 24.4945 1.324 24.4945 1.652V3.476C24.4945 3.8 24.4485 4.082 24.3565 4.322C24.2685 4.558 24.1225 4.742 23.9185 4.874C23.7185 5.002 23.4425 5.066 23.0905 5.066ZM23.0905 4.412C23.2385 4.412 23.3465 4.38 23.4145 4.316C23.4865 4.252 23.5345 4.164 23.5585 4.052C23.5825 3.94 23.5945 3.818 23.5945 3.686V1.448C23.5945 1.312 23.5825 1.19 23.5585 1.082C23.5345 0.974 23.4865 0.89 23.4145 0.83C23.3465 0.766 23.2385 0.734 23.0905 0.734C22.9505 0.734 22.8445 0.766 22.7725 0.83C22.7005 0.89 22.6525 0.974 22.6285 1.082C22.6045 1.19 22.5925 1.312 22.5925 1.448V3.686C22.5925 3.818 22.6025 3.94 22.6225 4.052C22.6465 4.164 22.6945 4.252 22.7665 4.316C22.8385 4.38 22.9465 4.412 23.0905 4.412ZM26.6394 5.066C26.2834 5.066 26.0034 4.996 25.7994 4.856C25.5994 4.716 25.4594 4.526 25.3794 4.286C25.2994 4.042 25.2594 3.762 25.2594 3.446V1.712C25.2594 1.38 25.2994 1.092 25.3794 0.848C25.4594 0.604 25.5994 0.416 25.7994 0.284C26.0034 0.152 26.2834 0.0859996 26.6394 0.0859996C26.9754 0.0859996 27.2374 0.144 27.4254 0.26C27.6174 0.372 27.7534 0.534 27.8334 0.746C27.9134 0.958 27.9534 1.204 27.9534 1.484V1.892H27.1014V1.472C27.1014 1.336 27.0934 1.212 27.0774 1.1C27.0654 0.988 27.0274 0.9 26.9634 0.836C26.9034 0.768 26.7974 0.734 26.6454 0.734C26.4934 0.734 26.3814 0.77 26.3094 0.842C26.2414 0.91 26.1974 1.004 26.1774 1.124C26.1574 1.24 26.1474 1.372 26.1474 1.52V3.632C26.1474 3.808 26.1614 3.954 26.1894 4.07C26.2174 4.182 26.2674 4.268 26.3394 4.328C26.4154 4.384 26.5174 4.412 26.6454 4.412C26.7934 4.412 26.8974 4.378 26.9574 4.31C27.0214 4.238 27.0614 4.144 27.0774 4.028C27.0934 3.912 27.1014 3.782 27.1014 3.638V3.2H27.9534V3.59C27.9534 3.878 27.9154 4.134 27.8394 4.358C27.7634 4.578 27.6294 4.752 27.4374 4.88C27.2494 5.004 26.9834 5.066 26.6394 5.066ZM28.7516 5V0.14H30.7916V0.764H29.6396V2.162H30.5456V2.78H29.6396V4.388H30.8036V5H28.7516ZM31.984 5V0.794H31.21V0.14H33.634V0.794H32.872V5H31.984ZM34.2271 5V0.14H34.9531V3.206L36.2851 0.14H36.8791V5H36.1471V1.886L34.8091 5H34.2271ZM37.8173 5V0.14H38.6993V2.174H39.6953V0.14H40.5773V5H39.6953V2.804H38.6993V5H37.8173ZM42.8089 5.066C42.4529 5.066 42.1729 4.996 41.9689 4.856C41.7689 4.716 41.6289 4.526 41.5489 4.286C41.4689 4.042 41.4289 3.762 41.4289 3.446V1.712C41.4289 1.38 41.4689 1.092 41.5489 0.848C41.6289 0.604 41.7689 0.416 41.9689 0.284C42.1729 0.152 42.4529 0.0859996 42.8089 0.0859996C43.1449 0.0859996 43.4069 0.144 43.5949 0.26C43.7869 0.372 43.9229 0.534 44.0029 0.746C44.0829 0.958 44.1229 1.204 44.1229 1.484V1.892H43.2709V1.472C43.2709 1.336 43.2629 1.212 43.2469 1.1C43.2349 0.988 43.1969 0.9 43.1329 0.836C43.0729 0.768 42.9669 0.734 42.8149 0.734C42.6629 0.734 42.5509 0.77 42.4789 0.842C42.4109 0.91 42.3669 1.004 42.3469 1.124C42.3269 1.24 42.3169 1.372 42.3169 1.52V3.632C42.3169 3.808 42.3309 3.954 42.3589 4.07C42.3869 4.182 42.4369 4.268 42.5089 4.328C42.5849 4.384 42.6869 4.412 42.8149 4.412C42.9629 4.412 43.0669 4.378 43.1269 4.31C43.1909 4.238 43.2309 4.144 43.2469 4.028C43.2629 3.912 43.2709 3.782 43.2709 3.638V3.2H44.1229V3.59C44.1229 3.878 44.0849 4.134 44.0089 4.358C43.9329 4.578 43.7989 4.752 43.6069 4.88C43.4189 5.004 43.1529 5.066 42.8089 5.066ZM44.9332 5V0.14H45.8152V2.18H45.9952L46.7812 0.14H47.6632L46.7392 2.432L47.7352 5H46.8352L45.9952 2.762H45.8152V5H44.9332ZM48.1013 5L49.0733 0.14H50.0213L50.9933 5H50.1713L49.9793 3.878H49.1333L48.9353 5H48.1013ZM49.2233 3.314H49.8833L49.5533 1.274L49.2233 3.314ZM51.362 5L52.334 2.828C52.134 2.724 51.972 2.564 51.848 2.348C51.724 2.128 51.662 1.858 51.662 1.538C51.662 1.218 51.72 0.956 51.836 0.752C51.952 0.544 52.126 0.39 52.358 0.29C52.594 0.19 52.892 0.14 53.252 0.14H54.374V5H53.492V3.032H53.21C53.202 3.032 53.184 3.032 53.156 3.032C53.128 3.032 53.11 3.032 53.102 3.032L52.328 5H51.362ZM53.294 2.408H53.492V0.758H53.276C53.016 0.758 52.82 0.822 52.688 0.95C52.556 1.074 52.49 1.27 52.49 1.538C52.49 1.814 52.548 2.028 52.664 2.18C52.784 2.332 52.994 2.408 53.294 2.408ZM0.366 12V7.14H1.794C2.086 7.14 2.322 7.194 2.502 7.302C2.686 7.41 2.82 7.568 2.904 7.776C2.992 7.98 3.036 8.228 3.036 8.52C3.036 8.836 2.982 9.092 2.874 9.288C2.766 9.48 2.614 9.62 2.418 9.708C2.226 9.796 1.998 9.84 1.734 9.84H1.254V12H0.366ZM1.254 9.216H1.59C1.75 9.216 1.874 9.194 1.962 9.15C2.054 9.102 2.116 9.028 2.148 8.928C2.184 8.824 2.202 8.686 2.202 8.514C2.202 8.338 2.188 8.196 2.16 8.088C2.136 7.976 2.08 7.894 1.992 7.842C1.908 7.79 1.774 7.764 1.59 7.764H1.254V9.216ZM3.71006 12V7.14H5.75006V7.764H4.59806V9.162H5.50406V9.78H4.59806V11.388H5.76206V12H3.71006ZM6.46847 12V7.14H8.54447V7.794H7.35047V12H6.46847ZM9.17972 12V7.14H9.90572V10.206L11.2377 7.14H11.8317V12H11.0997V8.886L9.76172 12H9.17972ZM14.0779 12.066C13.7339 12.066 13.4599 12.002 13.2559 11.874C13.0519 11.746 12.9059 11.562 12.8179 11.322C12.7299 11.082 12.6859 10.798 12.6859 10.47V8.652C12.6859 8.324 12.7299 8.044 12.8179 7.812C12.9059 7.576 13.0519 7.396 13.2559 7.272C13.4599 7.148 13.7339 7.086 14.0779 7.086C14.4299 7.086 14.7059 7.148 14.9059 7.272C15.1099 7.396 15.2559 7.576 15.3439 7.812C15.4359 8.044 15.4819 8.324 15.4819 8.652V10.476C15.4819 10.8 15.4359 11.082 15.3439 11.322C15.2559 11.558 15.1099 11.742 14.9059 11.874C14.7059 12.002 14.4299 12.066 14.0779 12.066ZM14.0779 11.412C14.2259 11.412 14.3339 11.38 14.4019 11.316C14.4739 11.252 14.5219 11.164 14.5459 11.052C14.5699 10.94 14.5819 10.818 14.5819 10.686V8.448C14.5819 8.312 14.5699 8.19 14.5459 8.082C14.5219 7.974 14.4739 7.89 14.4019 7.83C14.3339 7.766 14.2259 7.734 14.0779 7.734C13.9379 7.734 13.8319 7.766 13.7599 7.83C13.6879 7.89 13.6399 7.974 13.6159 8.082C13.5919 8.19 13.5799 8.312 13.5799 8.448V10.686C13.5799 10.818 13.5899 10.94 13.6099 11.052C13.6339 11.164 13.6819 11.252 13.7539 11.316C13.8259 11.38 13.9339 11.412 14.0779 11.412ZM16.3307 12V7.14H17.2127V9.174H18.2087V7.14H19.0907V12H18.2087V9.804H17.2127V12H16.3307ZM19.7684 12L20.7404 7.14H21.6884L22.6604 12H21.8384L21.6464 10.878H20.8004L20.6024 12H19.7684ZM20.8904 10.314H21.5504L21.2204 8.274L20.8904 10.314ZM22.9931 12V11.364C23.1051 11.368 23.1991 11.362 23.2751 11.346C23.3551 11.326 23.4211 11.284 23.4731 11.22C23.5291 11.156 23.5751 11.058 23.6111 10.926C23.6471 10.79 23.6771 10.608 23.7011 10.38C23.7251 10.152 23.7511 9.862 23.7791 9.51L23.9351 7.14H26.2991V12H25.4171V7.806H24.7211L24.6131 9.618C24.5891 9.974 24.5611 10.288 24.5291 10.56C24.5011 10.832 24.4551 11.064 24.3911 11.256C24.3311 11.444 24.2451 11.596 24.1331 11.712C24.0211 11.828 23.8731 11.91 23.6891 11.958C23.5051 12.002 23.2731 12.016 22.9931 12ZM27.2418 12V7.14H28.1238V9.18H28.3398C28.6678 9.18 28.9418 9.226 29.1618 9.318C29.3818 9.406 29.5478 9.554 29.6598 9.762C29.7718 9.966 29.8278 10.242 29.8278 10.59C29.8278 10.862 29.7938 11.09 29.7258 11.274C29.6578 11.454 29.5558 11.598 29.4198 11.706C29.2878 11.814 29.1278 11.89 28.9398 11.934C28.7518 11.978 28.5398 12 28.3038 12H27.2418ZM28.1238 11.4H28.3038C28.4758 11.4 28.6118 11.376 28.7118 11.328C28.8158 11.28 28.8918 11.196 28.9398 11.076C28.9878 10.952 29.0118 10.784 29.0118 10.572C29.0078 10.32 28.9558 10.128 28.8558 9.996C28.7598 9.864 28.5718 9.798 28.2918 9.798H28.1238V11.4ZM30.58 12V7.14H31.462V9.174H32.458V7.14H33.34V12H32.458V9.804H31.462V12H30.58ZM34.0177 12L34.9897 7.14H35.9377L36.9097 12H36.0877L35.8957 10.878H35.0497L34.8517 12H34.0177ZM35.1397 10.314H35.7997L35.4697 8.274L35.1397 10.314ZM37.2784 12L38.2504 9.828C38.0504 9.724 37.8884 9.564 37.7644 9.348C37.6404 9.128 37.5784 8.858 37.5784 8.538C37.5784 8.218 37.6364 7.956 37.7524 7.752C37.8684 7.544 38.0424 7.39 38.2744 7.29C38.5104 7.19 38.8084 7.14 39.1684 7.14H40.2904V12H39.4084V10.032H39.1264C39.1184 10.032 39.1004 10.032 39.0724 10.032C39.0444 10.032 39.0264 10.032 39.0184 10.032L38.2444 12H37.2784ZM39.2104 9.408H39.4084V7.758H39.1924C38.9324 7.758 38.7364 7.822 38.6044 7.95C38.4724 8.074 38.4064 8.27 38.4064 8.538C38.4064 8.814 38.4644 9.028 38.5804 9.18C38.7004 9.332 38.9104 9.408 39.2104 9.408ZM1.686 19.066C1.342 19.066 1.068 19.002 0.864 18.874C0.66 18.746 0.514 18.562 0.426 18.322C0.338 18.082 0.294 17.798 0.294 17.47V15.652C0.294 15.324 0.338 15.044 0.426 14.812C0.514 14.576 0.66 14.396 0.864 14.272C1.068 14.148 1.342 14.086 1.686 14.086C2.038 14.086 2.314 14.148 2.514 14.272C2.718 14.396 2.864 14.576 2.952 14.812C3.044 15.044 3.09 15.324 3.09 15.652V17.476C3.09 17.8 3.044 18.082 2.952 18.322C2.864 18.558 2.718 18.742 2.514 18.874C2.314 19.002 2.038 19.066 1.686 19.066ZM1.686 18.412C1.834 18.412 1.942 18.38 2.01 18.316C2.082 18.252 2.13 18.164 2.154 18.052C2.178 17.94 2.19 17.818 2.19 17.686V15.448C2.19 15.312 2.178 15.19 2.154 15.082C2.13 14.974 2.082 14.89 2.01 14.83C1.942 14.766 1.834 14.734 1.686 14.734C1.546 14.734 1.44 14.766 1.368 14.83C1.296 14.89 1.248 14.974 1.224 15.082C1.2 15.19 1.188 15.312 1.188 15.448V17.686C1.188 17.818 1.198 17.94 1.218 18.052C1.242 18.164 1.29 18.252 1.362 18.316C1.434 18.38 1.542 18.412 1.686 18.412ZM3.93886 19V14.14H6.19486V14.8H4.82086V16.18H5.01286C5.34086 16.18 5.61486 16.226 5.83486 16.318C6.05886 16.406 6.22686 16.554 6.33886 16.762C6.45086 16.966 6.50686 17.242 6.50686 17.59C6.50686 17.862 6.47286 18.09 6.40486 18.274C6.33686 18.454 6.23486 18.598 6.09886 18.706C5.96686 18.814 5.80686 18.89 5.61886 18.934C5.43086 18.978 5.21686 19 4.97686 19H3.93886ZM4.82086 18.4H4.98286C5.15086 18.4 5.28686 18.376 5.39086 18.328C5.49486 18.28 5.57086 18.196 5.61886 18.076C5.66686 17.952 5.68886 17.784 5.68486 17.572C5.68086 17.32 5.62886 17.128 5.52886 16.996C5.43286 16.864 5.24686 16.798 4.97086 16.798H4.82086V18.4ZM11.1412 19.924L11.0632 19H7.2892V14.14H8.1412V18.388H8.8732V14.14H9.7192V18.388H10.4152V14.14H11.2732V18.388H11.7472V19.924H11.1412ZM12.4841 19V14.14H14.5241V14.764H13.3721V16.162H14.2781V16.78H13.3721V18.388H14.5361V19H12.4841ZM16.5385 19.066C16.1825 19.066 15.9025 18.996 15.6985 18.856C15.4985 18.716 15.3585 18.526 15.2785 18.286C15.1985 18.042 15.1585 17.762 15.1585 17.446V15.712C15.1585 15.38 15.1985 15.092 15.2785 14.848C15.3585 14.604 15.4985 14.416 15.6985 14.284C15.9025 14.152 16.1825 14.086 16.5385 14.086C16.8745 14.086 17.1365 14.144 17.3245 14.26C17.5165 14.372 17.6525 14.534 17.7325 14.746C17.8125 14.958 17.8525 15.204 17.8525 15.484V15.892H17.0005V15.472C17.0005 15.336 16.9925 15.212 16.9765 15.1C16.9645 14.988 16.9265 14.9 16.8625 14.836C16.8025 14.768 16.6965 14.734 16.5445 14.734C16.3925 14.734 16.2805 14.77 16.2085 14.842C16.1405 14.91 16.0965 15.004 16.0765 15.124C16.0565 15.24 16.0465 15.372 16.0465 15.52V17.632C16.0465 17.808 16.0605 17.954 16.0885 18.07C16.1165 18.182 16.1665 18.268 16.2385 18.328C16.3145 18.384 16.4165 18.412 16.5445 18.412C16.6925 18.412 16.7965 18.378 16.8565 18.31C16.9205 18.238 16.9605 18.144 16.9765 18.028C16.9925 17.912 17.0005 17.782 17.0005 17.638V17.2H17.8525V17.59C17.8525 17.878 17.8145 18.134 17.7385 18.358C17.6625 18.578 17.5285 18.752 17.3365 18.88C17.1485 19.004 16.8825 19.066 16.5385 19.066ZM19.1368 19V14.794H18.3628V14.14H20.7868V14.794H20.0248V19H19.1368ZM21.3679 19V14.14H22.5619C22.7779 14.14 22.9719 14.16 23.1439 14.2C23.3199 14.24 23.4699 14.308 23.5939 14.404C23.7219 14.496 23.8199 14.622 23.8879 14.782C23.9559 14.942 23.9899 15.144 23.9899 15.388C23.9899 15.584 23.9619 15.752 23.9059 15.892C23.8539 16.032 23.7759 16.144 23.6719 16.228C23.5679 16.308 23.4379 16.362 23.2819 16.39C23.4739 16.422 23.6319 16.49 23.7559 16.594C23.8839 16.694 23.9779 16.826 24.0379 16.99C24.1019 17.154 24.1339 17.352 24.1339 17.584C24.1339 17.816 24.1039 18.022 24.0439 18.202C23.9879 18.378 23.9019 18.526 23.7859 18.646C23.6739 18.762 23.5319 18.85 23.3599 18.91C23.1919 18.97 22.9939 19 22.7659 19H21.3679ZM22.2559 18.376H22.5919C22.8599 18.376 23.0419 18.312 23.1379 18.184C23.2339 18.052 23.2819 17.85 23.2819 17.578C23.2819 17.382 23.2579 17.224 23.2099 17.104C23.1659 16.98 23.0899 16.888 22.9819 16.828C22.8779 16.768 22.7379 16.738 22.5619 16.738H22.2559V18.376ZM22.2559 16.126H22.5559C22.7319 16.126 22.8679 16.1 22.9639 16.048C23.0599 15.996 23.1259 15.916 23.1619 15.808C23.2019 15.7 23.2219 15.564 23.2219 15.4C23.2219 15.228 23.1919 15.096 23.1319 15.004C23.0759 14.908 22.9899 14.844 22.8739 14.812C22.7579 14.776 22.6099 14.758 22.4299 14.758H22.2559V16.126ZM24.8877 19V14.14H26.9277V14.764H25.7757V16.162H26.6817V16.78H25.7757V18.388H26.9397V19H24.8877ZM27.6461 19V14.14H28.5281V16.174H29.5241V14.14H30.4061V19H29.5241V16.804H28.5281V19H27.6461ZM31.3418 19V14.14H32.2238V16.174H33.2198V14.14H34.1018V19H33.2198V16.804H32.2238V19H31.3418ZM34.7794 19L35.7514 14.14H36.6994L37.6714 19H36.8494L36.6574 17.878H35.8114L35.6134 19H34.7794ZM35.9014 17.314H36.5614L36.2314 15.274L35.9014 17.314ZM38.0401 19L39.0121 16.828C38.8121 16.724 38.6501 16.564 38.5261 16.348C38.4021 16.128 38.3401 15.858 38.3401 15.538C38.3401 15.218 38.3981 14.956 38.5141 14.752C38.6301 14.544 38.8041 14.39 39.0361 14.29C39.2721 14.19 39.5701 14.14 39.9301 14.14H41.0521V19H40.1701V17.032H39.8881C39.8801 17.032 39.8621 17.032 39.8341 17.032C39.8061 17.032 39.7881 17.032 39.7801 17.032L39.0061 19H38.0401ZM39.9721 16.408H40.1701V14.758H39.9541C39.6941 14.758 39.4981 14.822 39.3661 14.95C39.2341 15.074 39.1681 15.27 39.1681 15.538C39.1681 15.814 39.2261 16.028 39.3421 16.18C39.4621 16.332 39.6721 16.408 39.9721 16.408ZM1.686 26.066C1.342 26.066 1.068 26.002 0.864 25.874C0.66 25.746 0.514 25.562 0.426 25.322C0.338 25.082 0.294 24.798 0.294 24.47V22.652C0.294 22.324 0.338 22.044 0.426 21.812C0.514 21.576 0.66 21.396 0.864 21.272C1.068 21.148 1.342 21.086 1.686 21.086C2.038 21.086 2.314 21.148 2.514 21.272C2.718 21.396 2.864 21.576 2.952 21.812C3.044 22.044 3.09 22.324 3.09 22.652V24.476C3.09 24.8 3.044 25.082 2.952 25.322C2.864 25.558 2.718 25.742 2.514 25.874C2.314 26.002 2.038 26.066 1.686 26.066ZM1.686 25.412C1.834 25.412 1.942 25.38 2.01 25.316C2.082 25.252 2.13 25.164 2.154 25.052C2.178 24.94 2.19 24.818 2.19 24.686V22.448C2.19 22.312 2.178 22.19 2.154 22.082C2.13 21.974 2.082 21.89 2.01 21.83C1.942 21.766 1.834 21.734 1.686 21.734C1.546 21.734 1.44 21.766 1.368 21.83C1.296 21.89 1.248 21.974 1.224 22.082C1.2 22.19 1.188 22.312 1.188 22.448V24.686C1.188 24.818 1.198 24.94 1.218 25.052C1.242 25.164 1.29 25.252 1.362 25.316C1.434 25.38 1.542 25.412 1.686 25.412ZM3.92686 26V21.14H5.35486C5.64686 21.14 5.88286 21.194 6.06286 21.302C6.24686 21.41 6.38086 21.568 6.46486 21.776C6.55286 21.98 6.59686 22.228 6.59686 22.52C6.59686 22.836 6.54286 23.092 6.43486 23.288C6.32686 23.48 6.17486 23.62 5.97886 23.708C5.78686 23.796 5.55886 23.84 5.29486 23.84H4.81486V26H3.92686ZM4.81486 23.216H5.15086C5.31086 23.216 5.43486 23.194 5.52286 23.15C5.61486 23.102 5.67686 23.028 5.70886 22.928C5.74486 22.824 5.76286 22.686 5.76286 22.514C5.76286 22.338 5.74886 22.196 5.72086 22.088C5.69686 21.976 5.64086 21.894 5.55286 21.842C5.46886 21.79 5.33486 21.764 5.15086 21.764H4.81486V23.216ZM7.28292 26V21.14H9.35892V21.794H8.16492V26H7.28292ZM9.33773 26L10.3097 21.14H11.2577L12.2297 26H11.4077L11.2157 24.878H10.3697L10.1717 26H9.33773ZM10.4597 24.314H11.1197L10.7897 22.274L10.4597 24.314ZM12.9105 26V21.14H13.7925V23.174H14.7885V21.14H15.6705V26H14.7885V23.804H13.7925V26H12.9105ZM16.6061 26V21.14H17.3321V24.206L18.6641 21.14H19.2581V26H18.5261V22.886L17.1881 26H16.6061ZM21.3363 26.072C21.0363 26.072 20.7923 26.016 20.6043 25.904C20.4203 25.788 20.2863 25.626 20.2023 25.418C20.1183 25.206 20.0763 24.96 20.0763 24.68V24.512H20.9043C20.9043 24.532 20.9043 24.56 20.9043 24.596C20.9043 24.628 20.9043 24.66 20.9043 24.692C20.9083 24.916 20.9403 25.086 21.0003 25.202C21.0603 25.318 21.1763 25.376 21.3483 25.376C21.4723 25.376 21.5643 25.346 21.6243 25.286C21.6883 25.226 21.7303 25.14 21.7503 25.028C21.7743 24.912 21.7863 24.774 21.7863 24.614C21.7863 24.366 21.7403 24.17 21.6483 24.026C21.5603 23.878 21.3823 23.798 21.1143 23.786C21.1023 23.782 21.0823 23.78 21.0543 23.78C21.0303 23.78 21.0023 23.78 20.9703 23.78C20.9383 23.78 20.9083 23.78 20.8803 23.78V23.192C20.9043 23.192 20.9283 23.192 20.9523 23.192C20.9763 23.192 21.0003 23.192 21.0243 23.192C21.0523 23.192 21.0743 23.192 21.0903 23.192C21.3623 23.18 21.5463 23.108 21.6423 22.976C21.7383 22.844 21.7863 22.652 21.7863 22.4C21.7863 22.196 21.7503 22.036 21.6783 21.92C21.6103 21.804 21.4863 21.746 21.3063 21.746C21.1383 21.746 21.0183 21.806 20.9463 21.926C20.8783 22.046 20.8383 22.204 20.8263 22.4C20.8263 22.416 20.8263 22.446 20.8263 22.49C20.8263 22.53 20.8263 22.572 20.8263 22.616H19.9983V22.382C19.9983 22.106 20.0503 21.872 20.1543 21.68C20.2583 21.484 20.4063 21.336 20.5983 21.236C20.7943 21.132 21.0283 21.08 21.3003 21.08C21.5763 21.08 21.8103 21.132 22.0023 21.236C22.1983 21.336 22.3483 21.482 22.4523 21.674C22.5563 21.862 22.6083 22.094 22.6083 22.37C22.6083 22.658 22.5463 22.896 22.4223 23.084C22.3023 23.272 22.1503 23.392 21.9663 23.444C22.0903 23.492 22.2003 23.564 22.2963 23.66C22.3963 23.752 22.4723 23.876 22.5243 24.032C22.5803 24.184 22.6083 24.374 22.6083 24.602C22.6083 24.894 22.5663 25.152 22.4823 25.376C22.3983 25.596 22.2623 25.768 22.0743 25.892C21.8903 26.012 21.6443 26.072 21.3363 26.072ZM23.13 26L24.102 21.14H25.05L26.022 26H25.2L25.008 24.878H24.162L23.964 26H23.13ZM24.252 24.314H24.912L24.582 22.274L24.252 24.314ZM29.4328 26.924L29.3548 26H26.7088V21.14H27.5908V25.388H28.6828V21.14H29.5648V25.388H30.0388V26.924H29.4328ZM30.7851 26V21.14H31.5111V24.206L32.8431 21.14H33.4371V26H32.7051V22.886L31.3671 26H30.7851ZM34.0633 26L35.0353 23.828C34.8353 23.724 34.6733 23.564 34.5493 23.348C34.4253 23.128 34.3633 22.858 34.3633 22.538C34.3633 22.218 34.4213 21.956 34.5373 21.752C34.6533 21.544 34.8273 21.39 35.0593 21.29C35.2953 21.19 35.5933 21.14 35.9533 21.14H37.0753V26H36.1933V24.032H35.9113C35.9033 24.032 35.8853 24.032 35.8573 24.032C35.8293 24.032 35.8113 24.032 35.8033 24.032L35.0293 26H34.0633ZM35.9953 23.408H36.1933V21.758H35.9773C35.7173 21.758 35.5213 21.822 35.3893 21.95C35.2573 22.074 35.1913 22.27 35.1913 22.538C35.1913 22.814 35.2493 23.028 35.3653 23.18C35.4853 23.332 35.6953 23.408 35.9953 23.408ZM2.52 32.766L1.434 31.38V31.056L2.52 29.67V30.54L1.968 31.218L2.52 31.896V32.766ZM1.29 32.766L0.204 31.38V31.056L1.29 29.67V30.54L0.732 31.218L1.29 31.896V32.766ZM3.13008 33L4.10208 28.14H5.05008L6.02208 33H5.20008L5.00808 31.878H4.16208L3.96408 33H3.13008ZM4.25208 31.314H4.91208L4.58208 29.274L4.25208 31.314ZM7.99884 33.066C7.64284 33.066 7.36284 32.996 7.15884 32.856C6.95884 32.716 6.81884 32.526 6.73884 32.286C6.65884 32.042 6.61884 31.762 6.61884 31.446V29.712C6.61884 29.38 6.65884 29.092 6.73884 28.848C6.81884 28.604 6.95884 28.416 7.15884 28.284C7.36284 28.152 7.64284 28.086 7.99884 28.086C8.33484 28.086 8.59684 28.144 8.78484 28.26C8.97684 28.372 9.11284 28.534 9.19284 28.746C9.27284 28.958 9.31284 29.204 9.31284 29.484V29.892H8.46084V29.472C8.46084 29.336 8.45284 29.212 8.43684 29.1C8.42484 28.988 8.38684 28.9 8.32284 28.836C8.26284 28.768 8.15684 28.734 8.00484 28.734C7.85284 28.734 7.74084 28.77 7.66884 28.842C7.60084 28.91 7.55684 29.004 7.53684 29.124C7.51684 29.24 7.50684 29.372 7.50684 29.52V31.632C7.50684 31.808 7.52084 31.954 7.54884 32.07C7.57684 32.182 7.62684 32.268 7.69884 32.328C7.77484 32.384 7.87684 32.412 8.00484 32.412C8.15284 32.412 8.25684 32.378 8.31684 32.31C8.38084 32.238 8.42084 32.144 8.43684 32.028C8.45284 31.912 8.46084 31.782 8.46084 31.638V31.2H9.31284V31.59C9.31284 31.878 9.27484 32.134 9.19884 32.358C9.12284 32.578 8.98884 32.752 8.79684 32.88C8.60884 33.004 8.34284 33.066 7.99884 33.066ZM11.4191 33.066C11.0631 33.066 10.7831 32.996 10.5791 32.856C10.3791 32.716 10.2391 32.526 10.1591 32.286C10.0791 32.042 10.0391 31.762 10.0391 31.446V29.712C10.0391 29.38 10.0791 29.092 10.1591 28.848C10.2391 28.604 10.3791 28.416 10.5791 28.284C10.7831 28.152 11.0631 28.086 11.4191 28.086C11.7551 28.086 12.0171 28.144 12.2051 28.26C12.3971 28.372 12.5331 28.534 12.6131 28.746C12.6931 28.958 12.7331 29.204 12.7331 29.484V29.892H11.8811V29.472C11.8811 29.336 11.8731 29.212 11.8571 29.1C11.8451 28.988 11.8071 28.9 11.7431 28.836C11.6831 28.768 11.5771 28.734 11.4251 28.734C11.2731 28.734 11.1611 28.77 11.0891 28.842C11.0211 28.91 10.9771 29.004 10.9571 29.124C10.9371 29.24 10.9271 29.372 10.9271 29.52V31.632C10.9271 31.808 10.9411 31.954 10.9691 32.07C10.9971 32.182 11.0471 32.268 11.1191 32.328C11.1951 32.384 11.2971 32.412 11.4251 32.412C11.5731 32.412 11.6771 32.378 11.7371 32.31C11.8011 32.238 11.8411 32.144 11.8571 32.028C11.8731 31.912 11.8811 31.782 11.8811 31.638V31.2H12.7331V31.59C12.7331 31.878 12.6951 32.134 12.6191 32.358C12.5431 32.578 12.4091 32.752 12.2171 32.88C12.0291 33.004 11.7631 33.066 11.4191 33.066ZM14.8513 33.066C14.5073 33.066 14.2333 33.002 14.0293 32.874C13.8253 32.746 13.6793 32.562 13.5913 32.322C13.5033 32.082 13.4593 31.798 13.4593 31.47V29.652C13.4593 29.324 13.5033 29.044 13.5913 28.812C13.6793 28.576 13.8253 28.396 14.0293 28.272C14.2333 28.148 14.5073 28.086 14.8513 28.086C15.2033 28.086 15.4793 28.148 15.6793 28.272C15.8833 28.396 16.0293 28.576 16.1173 28.812C16.2093 29.044 16.2553 29.324 16.2553 29.652V31.476C16.2553 31.8 16.2093 32.082 16.1173 32.322C16.0293 32.558 15.8833 32.742 15.6793 32.874C15.4793 33.002 15.2033 33.066 14.8513 33.066ZM14.8513 32.412C14.9993 32.412 15.1073 32.38 15.1753 32.316C15.2473 32.252 15.2953 32.164 15.3193 32.052C15.3433 31.94 15.3553 31.818 15.3553 31.686V29.448C15.3553 29.312 15.3433 29.19 15.3193 29.082C15.2953 28.974 15.2473 28.89 15.1753 28.83C15.1073 28.766 14.9993 28.734 14.8513 28.734C14.7113 28.734 14.6053 28.766 14.5333 28.83C14.4613 28.89 14.4133 28.974 14.3893 29.082C14.3653 29.19 14.3533 29.312 14.3533 29.448V31.686C14.3533 31.818 14.3633 31.94 14.3833 32.052C14.4073 32.164 14.4553 32.252 14.5273 32.316C14.5993 32.38 14.7073 32.412 14.8513 32.412ZM19.8342 33.924L19.7562 33H17.1102V28.14H17.9922V32.388H19.0842V28.14H19.9662V32.388H20.4402V33.924H19.8342ZM21.1865 33V28.14H21.9125V31.206L23.2445 28.14H23.8385V33H23.1065V29.886L21.7685 33H21.1865ZM24.5187 33L25.4907 28.14H26.4387L27.4107 33H26.5887L26.3967 31.878H25.5507L25.3527 33H24.5187ZM25.6407 31.314H26.3007L25.9707 29.274L25.6407 31.314ZM30.8214 33.924L30.7434 33H28.0974V28.14H28.9794V32.388H30.0714V28.14H30.9534V32.388H31.4274V33.924H30.8214ZM32.1738 33V28.14H32.8998V31.206L34.2318 28.14H34.8258V33H34.0938V29.886L32.7558 33H32.1738ZM35.4519 33L36.4239 30.828C36.2239 30.724 36.0619 30.564 35.9379 30.348C35.8139 30.128 35.7519 29.858 35.7519 29.538C35.7519 29.218 35.8099 28.956 35.9259 28.752C36.0419 28.544 36.2159 28.39 36.4479 28.29C36.6839 28.19 36.9819 28.14 37.3419 28.14H38.4639V33H37.5819V31.032H37.2999C37.2919 31.032 37.2739 31.032 37.2459 31.032C37.2179 31.032 37.1999 31.032 37.1919 31.032L36.4179 33H35.4519ZM37.3839 30.408H37.5819V28.758H37.3659C37.1059 28.758 36.9099 28.822 36.7779 28.95C36.6459 29.074 36.5799 29.27 36.5799 29.538C36.5799 29.814 36.6379 30.028 36.7539 30.18C36.8739 30.332 37.0839 30.408 37.3839 30.408ZM40.692 33L41.766 30.54L40.758 28.14H41.592L42.474 30.45H42.516V28.14H43.23V30.45H43.278L44.154 28.14H44.994L43.986 30.54L45.06 33H44.244L43.284 30.606H43.23V33H42.516V30.606H42.468L41.508 33H40.692ZM45.6318 33V28.14H47.6718V28.764H46.5198V30.162H47.4258V30.78H46.5198V32.388H47.6838V33H45.6318ZM48.3782 33V28.14H49.8062C50.0982 28.14 50.3342 28.194 50.5142 28.302C50.6982 28.41 50.8322 28.568 50.9162 28.776C51.0042 28.98 51.0482 29.228 51.0482 29.52C51.0482 29.836 50.9942 30.092 50.8862 30.288C50.7782 30.48 50.6262 30.62 50.4302 30.708C50.2382 30.796 50.0102 30.84 49.7462 30.84H49.2662V33H48.3782ZM49.2662 30.216H49.6022C49.7622 30.216 49.8862 30.194 49.9742 30.15C50.0662 30.102 50.1282 30.028 50.1602 29.928C50.1962 29.824 50.2142 29.686 50.2142 29.514C50.2142 29.338 50.2002 29.196 50.1722 29.088C50.1482 28.976 50.0922 28.894 50.0042 28.842C49.9202 28.79 49.7862 28.764 49.6022 28.764H49.2662V30.216ZM52.2083 33V28.794H51.4343V28.14H53.8583V28.794H53.0963V33H52.2083ZM54.4394 33V28.14H55.6334C55.8494 28.14 56.0434 28.16 56.2154 28.2C56.3914 28.24 56.5414 28.308 56.6654 28.404C56.7934 28.496 56.8914 28.622 56.9594 28.782C57.0274 28.942 57.0614 29.144 57.0614 29.388C57.0614 29.584 57.0334 29.752 56.9774 29.892C56.9254 30.032 56.8474 30.144 56.7434 30.228C56.6394 30.308 56.5094 30.362 56.3534 30.39C56.5454 30.422 56.7034 30.49 56.8274 30.594C56.9554 30.694 57.0494 30.826 57.1094 30.99C57.1734 31.154 57.2054 31.352 57.2054 31.584C57.2054 31.816 57.1754 32.022 57.1154 32.202C57.0594 32.378 56.9734 32.526 56.8574 32.646C56.7454 32.762 56.6034 32.85 56.4314 32.91C56.2634 32.97 56.0654 33 55.8374 33H54.4394ZM55.3274 32.376H55.6634C55.9314 32.376 56.1134 32.312 56.2094 32.184C56.3054 32.052 56.3534 31.85 56.3534 31.578C56.3534 31.382 56.3294 31.224 56.2814 31.104C56.2374 30.98 56.1614 30.888 56.0534 30.828C55.9494 30.768 55.8094 30.738 55.6334 30.738H55.3274V32.376ZM55.3274 30.126H55.6274C55.8034 30.126 55.9394 30.1 56.0354 30.048C56.1314 29.996 56.1974 29.916 56.2334 29.808C56.2734 29.7 56.2934 29.564 56.2934 29.4C56.2934 29.228 56.2634 29.096 56.2034 29.004C56.1474 28.908 56.0614 28.844 55.9454 28.812C55.8294 28.776 55.6814 28.758 55.5014 28.758H55.3274V30.126ZM0.366 40V35.14H3.168V40H2.292V35.77H1.242V40H0.366ZM5.3992 40.066C5.0552 40.066 4.7812 40.002 4.5772 39.874C4.3732 39.746 4.2272 39.562 4.1392 39.322C4.0512 39.082 4.0072 38.798 4.0072 38.47V36.652C4.0072 36.324 4.0512 36.044 4.1392 35.812C4.2272 35.576 4.3732 35.396 4.5772 35.272C4.7812 35.148 5.0552 35.086 5.3992 35.086C5.7512 35.086 6.0272 35.148 6.2272 35.272C6.4312 35.396 6.5772 35.576 6.6652 35.812C6.7572 36.044 6.8032 36.324 6.8032 36.652V38.476C6.8032 38.8 6.7572 39.082 6.6652 39.322C6.5772 39.558 6.4312 39.742 6.2272 39.874C6.0272 40.002 5.7512 40.066 5.3992 40.066ZM5.3992 39.412C5.5472 39.412 5.6552 39.38 5.7232 39.316C5.7952 39.252 5.8432 39.164 5.8672 39.052C5.8912 38.94 5.9032 38.818 5.9032 38.686V36.448C5.9032 36.312 5.8912 36.19 5.8672 36.082C5.8432 35.974 5.7952 35.89 5.7232 35.83C5.6552 35.766 5.5472 35.734 5.3992 35.734C5.2592 35.734 5.1532 35.766 5.0812 35.83C5.0092 35.89 4.9612 35.974 4.9372 36.082C4.9132 36.19 4.9012 36.312 4.9012 36.448V38.686C4.9012 38.818 4.9112 38.94 4.9312 39.052C4.9552 39.164 5.0032 39.252 5.0752 39.316C5.1472 39.38 5.2552 39.412 5.3992 39.412ZM7.30406 40V39.364C7.41606 39.368 7.51006 39.362 7.58606 39.346C7.66606 39.326 7.73206 39.284 7.78406 39.22C7.84006 39.156 7.88606 39.058 7.92206 38.926C7.95806 38.79 7.98806 38.608 8.01206 38.38C8.03606 38.152 8.06206 37.862 8.09006 37.51L8.24606 35.14H10.6101V40H9.72806V35.806H9.03206L8.92406 37.618C8.90006 37.974 8.87206 38.288 8.84006 38.56C8.81206 38.832 8.76606 39.064 8.70206 39.256C8.64206 39.444 8.55606 39.596 8.44406 39.712C8.33206 39.828 8.18406 39.91 8.00006 39.958C7.81606 40.002 7.58406 40.016 7.30406 40ZM11.5528 40V35.14H12.2788V38.206L13.6108 35.14H14.2048V40H13.4728V36.886L12.1348 40H11.5528ZM15.5759 40V35.794H14.8019V35.14H17.2259V35.794H16.4639V40H15.5759ZM17.819 40V35.14H18.545V38.206L19.877 35.14H20.471V40H19.739V36.886L18.401 40H17.819ZM23.2572 40V37.876C23.1372 37.9 23.0272 37.918 22.9272 37.93C22.8272 37.942 22.7292 37.948 22.6332 37.948C22.2092 37.948 21.8832 37.85 21.6552 37.654C21.4272 37.458 21.3132 37.16 21.3132 36.76V35.14H22.2012V36.64C22.2012 36.816 22.2192 36.96 22.2552 37.072C22.2952 37.184 22.3592 37.266 22.4472 37.318C22.5392 37.366 22.6592 37.39 22.8072 37.39C22.8712 37.39 22.9412 37.386 23.0172 37.378C23.0972 37.366 23.1772 37.352 23.2572 37.336V35.14H24.1392V40H23.2572ZM25.0635 40V35.14H27.1035V35.764H25.9515V37.162H26.8575V37.78H25.9515V39.388H27.1155V40H25.0635ZM29.1179 40.066C28.7619 40.066 28.4819 39.996 28.2779 39.856C28.0779 39.716 27.9379 39.526 27.8579 39.286C27.7779 39.042 27.7379 38.762 27.7379 38.446V36.712C27.7379 36.38 27.7779 36.092 27.8579 35.848C27.9379 35.604 28.0779 35.416 28.2779 35.284C28.4819 35.152 28.7619 35.086 29.1179 35.086C29.4539 35.086 29.7159 35.144 29.9039 35.26C30.0959 35.372 30.2319 35.534 30.3119 35.746C30.3919 35.958 30.4319 36.204 30.4319 36.484V36.892H29.5799V36.472C29.5799 36.336 29.5719 36.212 29.5559 36.1C29.5439 35.988 29.5059 35.9 29.4419 35.836C29.3819 35.768 29.2759 35.734 29.1239 35.734C28.9719 35.734 28.8599 35.77 28.7879 35.842C28.7199 35.91 28.6759 36.004 28.6559 36.124C28.6359 36.24 28.6259 36.372 28.6259 36.52V38.632C28.6259 38.808 28.6399 38.954 28.6679 39.07C28.6959 39.182 28.7459 39.268 28.8179 39.328C28.8939 39.384 28.9959 39.412 29.1239 39.412C29.2719 39.412 29.3759 39.378 29.4359 39.31C29.4999 39.238 29.5399 39.144 29.5559 39.028C29.5719 38.912 29.5799 38.782 29.5799 38.638V38.2H30.4319V38.59C30.4319 38.878 30.3939 39.134 30.3179 39.358C30.2419 39.578 30.1079 39.752 29.9159 39.88C29.7279 40.004 29.4619 40.066 29.1179 40.066ZM31.2421 40V35.14H32.1241V37.18H32.3041L33.0901 35.14H33.9721L33.0481 37.432L34.0441 40H33.1441L32.3041 37.762H32.1241V40H31.2421ZM34.6682 40V35.14H35.3942V38.206L36.7262 35.14H37.3202V40H36.5882V36.886L35.2502 40H34.6682ZM37.9404 40L38.9184 37.42L37.9704 35.14H38.7984L39.4284 36.646L39.9804 35.14H40.7484L39.8124 37.588L40.8204 40H39.9924L39.3024 38.368L38.7024 40H37.9404ZM0.366 47V42.14H1.794C2.086 42.14 2.322 42.194 2.502 42.302C2.686 42.41 2.82 42.568 2.904 42.776C2.992 42.98 3.036 43.228 3.036 43.52C3.036 43.836 2.982 44.092 2.874 44.288C2.766 44.48 2.614 44.62 2.418 44.708C2.226 44.796 1.998 44.84 1.734 44.84H1.254V47H0.366ZM1.254 44.216H1.59C1.75 44.216 1.874 44.194 1.962 44.15C2.054 44.102 2.116 44.028 2.148 43.928C2.184 43.824 2.202 43.686 2.202 43.514C2.202 43.338 2.188 43.196 2.16 43.088C2.136 42.976 2.08 42.894 1.992 42.842C1.908 42.79 1.774 42.764 1.59 42.764H1.254V44.216ZM3.71006 47V42.14H5.75006V42.764H4.59806V44.162H5.50406V44.78H4.59806V46.388H5.76206V47H3.71006ZM6.45647 47V42.14H9.25847V47H8.38247V42.77H7.33247V47H6.45647ZM10.1697 47V42.14H11.5977C11.8897 42.14 12.1257 42.194 12.3057 42.302C12.4897 42.41 12.6237 42.568 12.7077 42.776C12.7957 42.98 12.8397 43.228 12.8397 43.52C12.8397 43.836 12.7857 44.092 12.6777 44.288C12.5697 44.48 12.4177 44.62 12.2217 44.708C12.0297 44.796 11.8017 44.84 11.5377 44.84H11.0577V47H10.1697ZM11.0577 44.216H11.3937C11.5537 44.216 11.6777 44.194 11.7657 44.15C11.8577 44.102 11.9197 44.028 11.9517 43.928C11.9877 43.824 12.0057 43.686 12.0057 43.514C12.0057 43.338 11.9917 43.196 11.9637 43.088C11.9397 42.976 11.8837 42.894 11.7957 42.842C11.7117 42.79 11.5777 42.764 11.3937 42.764H11.0577V44.216ZM13.5137 47V42.14H15.5537V42.764H14.4017V44.162H15.3077V44.78H14.4017V46.388H15.5657V47H13.5137ZM17.5681 47.066C17.2121 47.066 16.9321 46.996 16.7281 46.856C16.5281 46.716 16.3881 46.526 16.3081 46.286C16.2281 46.042 16.1881 45.762 16.1881 45.446V43.712C16.1881 43.38 16.2281 43.092 16.3081 42.848C16.3881 42.604 16.5281 42.416 16.7281 42.284C16.9321 42.152 17.2121 42.086 17.5681 42.086C17.9041 42.086 18.1661 42.144 18.3541 42.26C18.5461 42.372 18.6821 42.534 18.7621 42.746C18.8421 42.958 18.8821 43.204 18.8821 43.484V43.892H18.0301V43.472C18.0301 43.336 18.0221 43.212 18.0061 43.1C17.9941 42.988 17.9561 42.9 17.8921 42.836C17.8321 42.768 17.7261 42.734 17.5741 42.734C17.4221 42.734 17.3101 42.77 17.2381 42.842C17.1701 42.91 17.1261 43.004 17.1061 43.124C17.0861 43.24 17.0761 43.372 17.0761 43.52V45.632C17.0761 45.808 17.0901 45.954 17.1181 46.07C17.1461 46.182 17.1961 46.268 17.2681 46.328C17.3441 46.384 17.4461 46.412 17.5741 46.412C17.7221 46.412 17.8261 46.378 17.8861 46.31C17.9501 46.238 17.9901 46.144 18.0061 46.028C18.0221 45.912 18.0301 45.782 18.0301 45.638V45.2H18.8821V45.59C18.8821 45.878 18.8441 46.134 18.7681 46.358C18.6921 46.578 18.5581 46.752 18.3661 46.88C18.1781 47.004 17.9121 47.066 17.5681 47.066ZM20.9884 47.066C20.6324 47.066 20.3524 46.996 20.1484 46.856C19.9484 46.716 19.8084 46.526 19.7284 46.286C19.6484 46.042 19.6084 45.762 19.6084 45.446V43.712C19.6084 43.38 19.6484 43.092 19.7284 42.848C19.8084 42.604 19.9484 42.416 20.1484 42.284C20.3524 42.152 20.6324 42.086 20.9884 42.086C21.3244 42.086 21.5864 42.144 21.7744 42.26C21.9664 42.372 22.1024 42.534 22.1824 42.746C22.2624 42.958 22.3024 43.204 22.3024 43.484V43.892H21.4504V43.472C21.4504 43.336 21.4424 43.212 21.4264 43.1C21.4144 42.988 21.3764 42.9 21.3124 42.836C21.2524 42.768 21.1464 42.734 20.9944 42.734C20.8424 42.734 20.7304 42.77 20.6584 42.842C20.5904 42.91 20.5464 43.004 20.5264 43.124C20.5064 43.24 20.4964 43.372 20.4964 43.52V45.632C20.4964 45.808 20.5104 45.954 20.5384 46.07C20.5664 46.182 20.6164 46.268 20.6884 46.328C20.7644 46.384 20.8664 46.412 20.9944 46.412C21.1424 46.412 21.2464 46.378 21.3064 46.31C21.3704 46.238 21.4104 46.144 21.4264 46.028C21.4424 45.912 21.4504 45.782 21.4504 45.638V45.2H22.3024V45.59C22.3024 45.878 22.2644 46.134 22.1884 46.358C22.1124 46.578 21.9784 46.752 21.7864 46.88C21.5984 47.004 21.3324 47.066 20.9884 47.066ZM23.1126 47V42.14H23.8386V45.206L25.1706 42.14H25.7646V47H25.0326V43.886L23.6946 47H23.1126ZM26.7028 47V42.14H27.4288V45.206L28.7608 42.14H29.3548V47H28.6228V43.886L27.2848 47H26.7028ZM28.1008 41.756C27.8128 41.756 27.5948 41.678 27.4468 41.522C27.3028 41.362 27.2308 41.148 27.2308 40.88H27.6988C27.6988 41.024 27.7288 41.134 27.7888 41.21C27.8488 41.286 27.9528 41.324 28.1008 41.324C28.2448 41.324 28.3468 41.286 28.4068 41.21C28.4668 41.13 28.4968 41.02 28.4968 40.88H28.9648C28.9648 41.148 28.8908 41.362 28.7428 41.522C28.5988 41.678 28.3848 41.756 28.1008 41.756ZM34.0739 46.766L32.9879 45.38V45.056L34.0739 43.67V44.54L33.5219 45.218L34.0739 45.896V46.766ZM32.8439 46.766L31.7579 45.38V45.056L32.8439 43.67V44.54L32.2859 45.218L32.8439 45.896V46.766ZM34.942 47V42.14H35.824V44.174H36.82V42.14H37.702V47H36.82V44.804H35.824V47H34.942ZM39.9456 47.066C39.6016 47.066 39.3276 47.002 39.1236 46.874C38.9196 46.746 38.7736 46.562 38.6856 46.322C38.5976 46.082 38.5536 45.798 38.5536 45.47V43.652C38.5536 43.324 38.5976 43.044 38.6856 42.812C38.7736 42.576 38.9196 42.396 39.1236 42.272C39.3276 42.148 39.6016 42.086 39.9456 42.086C40.2976 42.086 40.5736 42.148 40.7736 42.272C40.9776 42.396 41.1236 42.576 41.2116 42.812C41.3036 43.044 41.3496 43.324 41.3496 43.652V45.476C41.3496 45.8 41.3036 46.082 41.2116 46.322C41.1236 46.558 40.9776 46.742 40.7736 46.874C40.5736 47.002 40.2976 47.066 39.9456 47.066ZM39.9456 46.412C40.0936 46.412 40.2016 46.38 40.2696 46.316C40.3416 46.252 40.3896 46.164 40.4136 46.052C40.4376 45.94 40.4496 45.818 40.4496 45.686V43.448C40.4496 43.312 40.4376 43.19 40.4136 43.082C40.3896 42.974 40.3416 42.89 40.2696 42.83C40.2016 42.766 40.0936 42.734 39.9456 42.734C39.8056 42.734 39.6996 42.766 39.6276 42.83C39.5556 42.89 39.5076 42.974 39.4836 43.082C39.4596 43.19 39.4476 43.312 39.4476 43.448V45.686C39.4476 45.818 39.4576 45.94 39.4776 46.052C39.5016 46.164 39.5496 46.252 39.6216 46.316C39.6936 46.38 39.8016 46.412 39.9456 46.412ZM42.1745 47L42.2585 42.14H43.1765L43.8665 45.506L44.5865 42.14H45.4745L45.5645 47H44.9045L44.8325 43.622L44.1425 47H43.6085L42.9065 43.61L42.8405 47H42.1745ZM46.2162 47L47.1882 42.14H48.1362L49.1082 47H48.2862L48.0942 45.878H47.2482L47.0502 47H46.2162ZM47.3382 45.314H47.9982L47.6682 43.274L47.3382 45.314ZM49.7769 47V42.14H51.2049C51.4969 42.14 51.7329 42.194 51.9129 42.302C52.0969 42.41 52.2309 42.568 52.3149 42.776C52.4029 42.98 52.4469 43.228 52.4469 43.52C52.4469 43.836 52.3929 44.092 52.2849 44.288C52.1769 44.48 52.0249 44.62 51.8289 44.708C51.6369 44.796 51.4089 44.84 51.1449 44.84H50.6649V47H49.7769ZM50.6649 44.216H51.0009C51.1609 44.216 51.2849 44.194 51.3729 44.15C51.4649 44.102 51.5269 44.028 51.5589 43.928C51.5949 43.824 51.6129 43.686 51.6129 43.514C51.6129 43.338 51.5989 43.196 51.5709 43.088C51.5469 42.976 51.4909 42.894 51.4029 42.842C51.3189 42.79 51.1849 42.764 51.0009 42.764H50.6649V44.216ZM52.5938 47L53.5658 42.14H54.5138L55.4858 47H54.6638L54.4718 45.878H53.6258L53.4278 47H52.5938ZM53.7158 45.314H54.3758L54.0458 43.274L53.7158 45.314ZM56.1665 47V42.14H57.0485V44.174H58.0445V42.14H58.9265V47H58.0445V44.804H57.0485V47H56.1665ZM1.716 55.116C1.468 55.116 1.264 55.06 1.104 54.948C0.944 54.84 0.816 54.688 0.72 54.492C0.624 54.3 0.552 54.078 0.504 53.826C0.46 53.57 0.432 53.296 0.42 53.004C0.408 52.712 0.402 52.416 0.402 52.116C0.402 51.804 0.408 51.5 0.42 51.204C0.432 50.908 0.46 50.632 0.504 50.376C0.552 50.12 0.624 49.896 0.72 49.704C0.816 49.512 0.944 49.362 1.104 49.254C1.264 49.146 1.468 49.092 1.716 49.092V49.656C1.592 49.656 1.492 49.72 1.416 49.848C1.344 49.976 1.29 50.152 1.254 50.376C1.218 50.6 1.194 50.862 1.182 51.162C1.174 51.458 1.17 51.776 1.17 52.116C1.17 52.464 1.174 52.786 1.182 53.082C1.194 53.378 1.218 53.636 1.254 53.856C1.294 54.076 1.35 54.246 1.422 54.366C1.494 54.49 1.592 54.554 1.716 54.558V55.116ZM2.46202 54V49.14H5.26402V54H4.38802V49.77H3.33802V54H2.46202ZM5.92922 54L6.90122 49.14H7.84922L8.82122 54H7.99922L7.80722 52.878H6.96122L6.76322 54H5.92922ZM7.05122 52.314H7.71122L7.38122 50.274L7.05122 52.314ZM9.47798 54L9.56198 49.14H10.48L11.17 52.506L11.89 49.14H12.778L12.868 54H12.208L12.136 50.622L11.446 54H10.912L10.21 50.61L10.144 54H9.47798ZM13.4657 54L14.4377 51.828C14.2377 51.724 14.0757 51.564 13.9517 51.348C13.8277 51.128 13.7657 50.858 13.7657 50.538C13.7657 50.218 13.8237 49.956 13.9397 49.752C14.0557 49.544 14.2297 49.39 14.4617 49.29C14.6977 49.19 14.9957 49.14 15.3557 49.14H16.4777V54H15.5957V52.032H15.3137C15.3057 52.032 15.2877 52.032 15.2597 52.032C15.2317 52.032 15.2137 52.032 15.2057 52.032L14.4317 54H13.4657ZM15.3977 51.408H15.5957V49.758H15.3797C15.1197 49.758 14.9237 49.822 14.7917 49.95C14.6597 50.074 14.5937 50.27 14.5937 50.538C14.5937 50.814 14.6517 51.028 14.7677 51.18C14.8877 51.332 15.0977 51.408 15.3977 51.408ZM17.8477 54V49.794H17.0737V49.14H19.4977V49.794H18.7357V54H17.8477ZM20.0908 54V49.14H20.9728V51.18H21.1888C21.5168 51.18 21.7908 51.226 22.0108 51.318C22.2308 51.406 22.3968 51.554 22.5088 51.762C22.6208 51.966 22.6768 52.242 22.6768 52.59C22.6768 52.862 22.6428 53.09 22.5748 53.274C22.5068 53.454 22.4048 53.598 22.2688 53.706C22.1368 53.814 21.9768 53.89 21.7888 53.934C21.6008 53.978 21.3888 54 21.1528 54H20.0908ZM20.9728 53.4H21.1528C21.3248 53.4 21.4608 53.376 21.5608 53.328C21.6648 53.28 21.7408 53.196 21.7888 53.076C21.8368 52.952 21.8608 52.784 21.8608 52.572C21.8568 52.32 21.8048 52.128 21.7048 51.996C21.6088 51.864 21.4208 51.798 21.1408 51.798H20.9728V53.4ZM25.068 54V49.14H25.794V52.206L27.126 49.14H27.72V54H26.988V50.886L25.65 54H25.068ZM28.6342 54L28.7182 49.14H29.6362L30.3262 52.506L31.0462 49.14H31.9342L32.0242 54H31.3642L31.2922 50.622L30.6022 54H30.0682L29.3662 50.61L29.3002 54H28.6342ZM32.9219 54V49.14H34.9619V49.764H33.8099V51.162H34.7159V51.78H33.8099V53.388H34.9739V54H32.9219ZM35.6803 54V49.14H36.5623V51.174H37.5583V49.14H38.4403V54H37.5583V51.804H36.5623V54H35.6803ZM39.1899 55.116V54.552C39.3139 54.552 39.4119 54.49 39.4839 54.366C39.5599 54.242 39.6159 54.07 39.6519 53.85C39.6879 53.626 39.7119 53.366 39.7239 53.07C39.7359 52.774 39.7419 52.454 39.7419 52.11C39.7419 51.766 39.7359 51.446 39.7239 51.15C39.7119 50.85 39.6879 50.59 39.6519 50.37C39.6199 50.146 39.5659 49.972 39.4899 49.848C39.4179 49.72 39.3179 49.654 39.1899 49.65V49.092C39.4379 49.092 39.6419 49.146 39.8019 49.254C39.9659 49.358 40.0959 49.508 40.1919 49.704C40.2879 49.896 40.3579 50.12 40.4019 50.376C40.4459 50.628 40.4739 50.902 40.4859 51.198C40.4979 51.49 40.5039 51.794 40.5039 52.11C40.5039 52.41 40.4979 52.706 40.4859 52.998C40.4739 53.29 40.4459 53.564 40.4019 53.82C40.3579 54.076 40.2879 54.3 40.1919 54.492C40.0959 54.688 39.9659 54.84 39.8019 54.948C39.6419 55.06 39.4379 55.116 39.1899 55.116ZM41.2534 53.766V52.896L41.8414 52.212L41.2534 51.54V50.67L42.3694 52.056V52.38L41.2534 53.766ZM42.4894 53.766V52.896L43.0714 52.212L42.4894 51.54V50.67L43.6054 52.056V52.38L42.4894 53.766ZM44.3631 53.766V52.896L44.9511 52.212L44.3631 51.54V50.67L45.4791 52.056V52.38L44.3631 53.766ZM45.5991 53.766V52.896L46.1811 52.212L45.5991 51.54V50.67L46.7151 52.056V52.38L45.5991 53.766ZM47.4488 54V53.178H48.2408V54H47.4488Z" fill="#C8082B"/>
</svg>
