<svg width="217" height="206" viewBox="0 0 217 206" fill="none" xmlns="http://www.w3.org/2000/svg">
<path d="M6.138 19.242C4.83267 19.242 3.806 18.9853 3.058 18.472C2.32467 17.9587 1.81133 17.262 1.518 16.382C1.22467 15.4873 1.078 14.4607 1.078 13.302V6.944C1.078 5.72667 1.22467 4.67067 1.518 3.776C1.81133 2.88133 2.32467 2.192 3.058 1.708C3.806 1.224 4.83267 0.981999 6.138 0.981999C7.37 0.981999 8.33067 1.19467 9.02 1.62C9.724 2.03067 10.2227 2.62467 10.516 3.402C10.8093 4.17933 10.956 5.08133 10.956 6.108V7.604H7.832V6.064C7.832 5.56533 7.80267 5.11067 7.744 4.7C7.7 4.28933 7.56067 3.96667 7.326 3.732C7.106 3.48267 6.71733 3.358 6.16 3.358C5.60267 3.358 5.192 3.49 4.928 3.754C4.67867 4.00333 4.51733 4.348 4.444 4.788C4.37067 5.21333 4.334 5.69733 4.334 6.24V13.984C4.334 14.6293 4.38533 15.1647 4.488 15.59C4.59067 16.0007 4.774 16.316 5.038 16.536C5.31667 16.7413 5.69067 16.844 6.16 16.844C6.70267 16.844 7.084 16.7193 7.304 16.47C7.53867 16.206 7.68533 15.8613 7.744 15.436C7.80267 15.0107 7.832 14.534 7.832 14.006V12.4H10.956V13.83C10.956 14.886 10.8167 15.8247 10.538 16.646C10.2593 17.4527 9.768 18.0907 9.064 18.56C8.37467 19.0147 7.39933 19.242 6.138 19.242ZM13.8829 19V1.18H21.3629V3.468H17.1389V8.594H20.4609V10.86H17.1389V16.756H21.4069V19H13.8829ZM23.953 19V1.18H28.331C29.123 1.18 29.8343 1.25333 30.465 1.4C31.1103 1.54667 31.6603 1.796 32.115 2.148C32.5843 2.48533 32.9437 2.94733 33.193 3.534C33.4423 4.12067 33.567 4.86133 33.567 5.756C33.567 6.47467 33.4643 7.09067 33.259 7.604C33.0683 8.11733 32.7823 8.528 32.401 8.836C32.0197 9.12933 31.543 9.32733 30.971 9.43C31.675 9.54733 32.2543 9.79667 32.709 10.178C33.1783 10.5447 33.523 11.0287 33.743 11.63C33.9777 12.2313 34.095 12.9573 34.095 13.808C34.095 14.6587 33.985 15.414 33.765 16.074C33.5597 16.7193 33.2443 17.262 32.819 17.702C32.4083 18.1273 31.8877 18.45 31.257 18.67C30.641 18.89 29.915 19 29.079 19H23.953ZM27.209 16.712H28.441C29.4237 16.712 30.091 16.4773 30.443 16.008C30.795 15.524 30.971 14.7833 30.971 13.786C30.971 13.0673 30.883 12.488 30.707 12.048C30.5457 11.5933 30.267 11.256 29.871 11.036C29.4897 10.816 28.9763 10.706 28.331 10.706H27.209V16.712ZM27.209 8.462H28.309C28.9543 8.462 29.453 8.36667 29.805 8.176C30.157 7.98533 30.399 7.692 30.531 7.296C30.6777 6.9 30.751 6.40133 30.751 5.8C30.751 5.16933 30.641 4.68533 30.421 4.348C30.2157 3.996 29.9003 3.76133 29.475 3.644C29.0497 3.512 28.507 3.446 27.847 3.446H27.209V8.462ZM36.8591 19V1.18H44.3391V3.468H40.1151V8.594H43.4371V10.86H40.1151V16.756H44.3831V19H36.8591ZM46.9293 19V1.18H52.1653C53.2359 1.18 54.1013 1.378 54.7613 1.774C55.4359 2.17 55.9273 2.74933 56.2353 3.512C56.5579 4.26 56.7193 5.16933 56.7193 6.24C56.7193 7.39867 56.5213 8.33733 56.1253 9.056C55.7293 9.76 55.1719 10.2733 54.4533 10.596C53.7493 10.9187 52.9133 11.08 51.9453 11.08H50.1853V19H46.9293ZM50.1853 8.792H51.4173C52.0039 8.792 52.4586 8.71133 52.7813 8.55C53.1186 8.374 53.3459 8.10267 53.4633 7.736C53.5953 7.35467 53.6613 6.84867 53.6613 6.218C53.6613 5.57267 53.6099 5.052 53.5073 4.656C53.4193 4.24533 53.2139 3.94467 52.8913 3.754C52.5833 3.56333 52.0919 3.468 51.4173 3.468H50.1853V8.792ZM64.0308 19.242C62.7695 19.242 61.7648 19.0073 61.0168 18.538C60.2688 18.0687 59.7335 17.394 59.4108 16.514C59.0882 15.634 58.9268 14.5927 58.9268 13.39V6.724C58.9268 5.52133 59.0882 4.49467 59.4108 3.644C59.7335 2.77867 60.2688 2.11867 61.0168 1.664C61.7648 1.20933 62.7695 0.981999 64.0308 0.981999C65.3215 0.981999 66.3335 1.20933 67.0668 1.664C67.8148 2.11867 68.3502 2.77867 68.6728 3.644C69.0102 4.49467 69.1788 5.52133 69.1788 6.724V13.412C69.1788 14.6 69.0102 15.634 68.6728 16.514C68.3502 17.3793 67.8148 18.054 67.0668 18.538C66.3335 19.0073 65.3215 19.242 64.0308 19.242ZM64.0308 16.844C64.5735 16.844 64.9695 16.7267 65.2188 16.492C65.4828 16.2573 65.6588 15.9347 65.7468 15.524C65.8348 15.1133 65.8788 14.666 65.8788 14.182V5.976C65.8788 5.47733 65.8348 5.03 65.7468 4.634C65.6588 4.238 65.4828 3.93 65.2188 3.71C64.9695 3.47533 64.5735 3.358 64.0308 3.358C63.5175 3.358 63.1288 3.47533 62.8648 3.71C62.6008 3.93 62.4248 4.238 62.3368 4.634C62.2488 5.03 62.2048 5.47733 62.2048 5.976V14.182C62.2048 14.666 62.2415 15.1133 62.3148 15.524C62.4028 15.9347 62.5788 16.2573 62.8428 16.492C63.1068 16.7267 63.5028 16.844 64.0308 16.844ZM71.6973 13.588V11.542H77.0213V13.588H71.6973ZM84.6653 19.242C83.404 19.242 82.3993 19.0073 81.6513 18.538C80.9033 18.0687 80.368 17.394 80.0453 16.514C79.7226 15.634 79.5613 14.5927 79.5613 13.39V6.724C79.5613 5.52133 79.7226 4.49467 80.0453 3.644C80.368 2.77867 80.9033 2.11867 81.6513 1.664C82.3993 1.20933 83.404 0.981999 84.6653 0.981999C85.956 0.981999 86.968 1.20933 87.7013 1.664C88.4493 2.11867 88.9846 2.77867 89.3073 3.644C89.6446 4.49467 89.8133 5.52133 89.8133 6.724V13.412C89.8133 14.6 89.6446 15.634 89.3073 16.514C88.9846 17.3793 88.4493 18.054 87.7013 18.538C86.968 19.0073 85.956 19.242 84.6653 19.242ZM84.6653 16.844C85.208 16.844 85.604 16.7267 85.8533 16.492C86.1173 16.2573 86.2933 15.9347 86.3813 15.524C86.4693 15.1133 86.5133 14.666 86.5133 14.182V5.976C86.5133 5.47733 86.4693 5.03 86.3813 4.634C86.2933 4.238 86.1173 3.93 85.8533 3.71C85.604 3.47533 85.208 3.358 84.6653 3.358C84.152 3.358 83.7633 3.47533 83.4993 3.71C83.2353 3.93 83.0593 4.238 82.9713 4.634C82.8833 5.03 82.8393 5.47733 82.8393 5.976V14.182C82.8393 14.666 82.876 15.1133 82.9493 15.524C83.0373 15.9347 83.2133 16.2573 83.4773 16.492C83.7413 16.7267 84.1373 16.844 84.6653 16.844ZM97.6778 19.242C96.3724 19.242 95.3458 18.9853 94.5978 18.472C93.8644 17.9587 93.3511 17.262 93.0578 16.382C92.7644 15.4873 92.6178 14.4607 92.6178 13.302V6.944C92.6178 5.72667 92.7644 4.67067 93.0578 3.776C93.3511 2.88133 93.8644 2.192 94.5978 1.708C95.3458 1.224 96.3724 0.981999 97.6778 0.981999C98.9098 0.981999 99.8704 1.19467 100.56 1.62C101.264 2.03067 101.762 2.62467 102.056 3.402C102.349 4.17933 102.496 5.08133 102.496 6.108V7.604H99.3718V6.064C99.3718 5.56533 99.3424 5.11067 99.2838 4.7C99.2398 4.28933 99.1004 3.96667 98.8658 3.732C98.6458 3.48267 98.2571 3.358 97.6998 3.358C97.1424 3.358 96.7318 3.49 96.4678 3.754C96.2184 4.00333 96.0571 4.348 95.9838 4.788C95.9104 5.21333 95.8738 5.69733 95.8738 6.24V13.984C95.8738 14.6293 95.9251 15.1647 96.0278 15.59C96.1304 16.0007 96.3138 16.316 96.5778 16.536C96.8564 16.7413 97.2304 16.844 97.6998 16.844C98.2424 16.844 98.6238 16.7193 98.8438 16.47C99.0784 16.206 99.2251 15.8613 99.2838 15.436C99.3424 15.0107 99.3718 14.534 99.3718 14.006V12.4H102.496V13.83C102.496 14.886 102.356 15.8247 102.078 16.646C101.799 17.4527 101.308 18.0907 100.604 18.56C99.9144 19.0147 98.9391 19.242 97.6778 19.242ZM105.423 19V1.18H112.903V3.468H108.679V8.594H112.001V10.86H108.679V16.756H112.947V19H105.423ZM117.275 19V3.578H114.437V1.18H123.325V3.578H120.531V19H117.275ZM125.5 19V1.18H128.162V12.422L133.046 1.18H135.224V19H132.54V7.582L127.634 19H125.5ZM138.663 19V1.18H141.897V8.638H145.549V1.18H148.783V19H145.549V10.948H141.897V19H138.663ZM156.966 19.242C155.661 19.242 154.634 18.9853 153.886 18.472C153.153 17.9587 152.639 17.262 152.346 16.382C152.053 15.4873 151.906 14.4607 151.906 13.302V6.944C151.906 5.72667 152.053 4.67067 152.346 3.776C152.639 2.88133 153.153 2.192 153.886 1.708C154.634 1.224 155.661 0.981999 156.966 0.981999C158.198 0.981999 159.159 1.19467 159.848 1.62C160.552 2.03067 161.051 2.62467 161.344 3.402C161.637 4.17933 161.784 5.08133 161.784 6.108V7.604H158.66V6.064C158.66 5.56533 158.631 5.11067 158.572 4.7C158.528 4.28933 158.389 3.96667 158.154 3.732C157.934 3.48267 157.545 3.358 156.988 3.358C156.431 3.358 156.02 3.49 155.756 3.754C155.507 4.00333 155.345 4.348 155.272 4.788C155.199 5.21333 155.162 5.69733 155.162 6.24V13.984C155.162 14.6293 155.213 15.1647 155.316 15.59C155.419 16.0007 155.602 16.316 155.866 16.536C156.145 16.7413 156.519 16.844 156.988 16.844C157.531 16.844 157.912 16.7193 158.132 16.47C158.367 16.206 158.513 15.8613 158.572 15.436C158.631 15.0107 158.66 14.534 158.66 14.006V12.4H161.784V13.83C161.784 14.886 161.645 15.8247 161.366 16.646C161.087 17.4527 160.596 18.0907 159.892 18.56C159.203 19.0147 158.227 19.242 156.966 19.242ZM164.755 19V1.18H167.989V8.66H168.649L171.531 1.18H174.765L171.377 9.584L175.029 19H171.729L168.649 10.794H167.989V19H164.755ZM176.371 19L179.935 1.18H183.411L186.975 19H183.961L183.257 14.886H180.155L179.429 19H176.371ZM180.485 12.818H182.905L181.695 5.338L180.485 12.818ZM188.327 19L191.891 11.036C191.158 10.6547 190.564 10.068 190.109 9.276C189.655 8.46933 189.427 7.47933 189.427 6.306C189.427 5.13267 189.64 4.172 190.065 3.424C190.491 2.66133 191.129 2.09667 191.979 1.73C192.845 1.36333 193.937 1.18 195.257 1.18H199.371V19H196.137V11.784H195.103C195.074 11.784 195.008 11.784 194.905 11.784C194.803 11.784 194.737 11.784 194.707 11.784L191.869 19H188.327ZM195.411 9.496H196.137V3.446H195.345C194.392 3.446 193.673 3.68067 193.189 4.15C192.705 4.60467 192.463 5.32333 192.463 6.306C192.463 7.318 192.676 8.10267 193.101 8.66C193.541 9.21733 194.311 9.496 195.411 9.496ZM1.342 45V27.18H6.578C7.64867 27.18 8.514 27.378 9.174 27.774C9.84867 28.17 10.34 28.7493 10.648 29.512C10.9707 30.26 11.132 31.1693 11.132 32.24C11.132 33.3987 10.934 34.3373 10.538 35.056C10.142 35.76 9.58467 36.2733 8.866 36.596C8.162 36.9187 7.326 37.08 6.358 37.08H4.598V45H1.342ZM4.598 34.792H5.83C6.41667 34.792 6.87133 34.7113 7.194 34.55C7.53133 34.374 7.75867 34.1027 7.876 33.736C8.008 33.3547 8.074 32.8487 8.074 32.218C8.074 31.5727 8.02267 31.052 7.92 30.656C7.832 30.2453 7.62667 29.9447 7.304 29.754C6.996 29.5633 6.50467 29.468 5.83 29.468H4.598V34.792ZM13.6036 45V27.18H21.0836V29.468H16.8596V34.594H20.1816V36.86H16.8596V42.756H21.1276V45H13.6036ZM23.7177 45V27.18H31.3297V29.578H26.9517V45H23.7177ZM33.659 45V27.18H36.321V38.422L41.205 27.18H43.383V45H40.699V33.582L35.793 45H33.659ZM51.6189 45.242C50.3575 45.242 49.3529 45.0073 48.6049 44.538C47.8569 44.0687 47.3215 43.394 46.9989 42.514C46.6762 41.634 46.5149 40.5927 46.5149 39.39V32.724C46.5149 31.5213 46.6762 30.4947 46.9989 29.644C47.3215 28.7787 47.8569 28.1187 48.6049 27.664C49.3529 27.2093 50.3575 26.982 51.6189 26.982C52.9095 26.982 53.9215 27.2093 54.6549 27.664C55.4029 28.1187 55.9382 28.7787 56.2609 29.644C56.5982 30.4947 56.7669 31.5213 56.7669 32.724V39.412C56.7669 40.6 56.5982 41.634 56.2609 42.514C55.9382 43.3793 55.4029 44.054 54.6549 44.538C53.9215 45.0073 52.9095 45.242 51.6189 45.242ZM51.6189 42.844C52.1615 42.844 52.5575 42.7267 52.8069 42.492C53.0709 42.2573 53.2469 41.9347 53.3349 41.524C53.4229 41.1133 53.4669 40.666 53.4669 40.182V31.976C53.4669 31.4773 53.4229 31.03 53.3349 30.634C53.2469 30.238 53.0709 29.93 52.8069 29.71C52.5575 29.4753 52.1615 29.358 51.6189 29.358C51.1055 29.358 50.7169 29.4753 50.4529 29.71C50.1889 29.93 50.0129 30.238 49.9249 30.634C49.8369 31.03 49.7929 31.4773 49.7929 31.976V40.182C49.7929 40.666 49.8295 41.1133 49.9029 41.524C49.9909 41.9347 50.1669 42.2573 50.4309 42.492C50.6949 42.7267 51.0909 42.844 51.6189 42.844ZM59.8794 45V27.18H63.1134V34.638H66.7654V27.18H69.9994V45H66.7654V36.948H63.1134V45H59.8794ZM72.484 45L76.048 27.18H79.524L83.088 45H80.074L79.37 40.886H76.268L75.542 45H72.484ZM76.598 38.818H79.018L77.808 31.338L76.598 38.818ZM84.3081 45V42.668C84.7188 42.6827 85.0635 42.6607 85.3421 42.602C85.6355 42.5287 85.8775 42.3747 86.0681 42.14C86.2735 41.9053 86.4421 41.546 86.5741 41.062C86.7061 40.5633 86.8161 39.896 86.9041 39.06C86.9921 38.224 87.0875 37.1607 87.1901 35.87L87.7621 27.18H96.4301V45H93.1961V29.622H90.6441L90.2481 36.266C90.1601 37.5713 90.0575 38.7227 89.9401 39.72C89.8375 40.7173 89.6688 41.568 89.4341 42.272C89.2141 42.9613 88.8988 43.5187 88.4881 43.944C88.0775 44.3693 87.5348 44.67 86.8601 44.846C86.1855 45.0073 85.3348 45.0587 84.3081 45ZM99.8867 45V27.18H103.121V34.66H103.913C105.115 34.66 106.12 34.8287 106.927 35.166C107.733 35.4887 108.342 36.0313 108.753 36.794C109.163 37.542 109.369 38.554 109.369 39.83C109.369 40.8273 109.244 41.6633 108.995 42.338C108.745 42.998 108.371 43.526 107.873 43.922C107.389 44.318 106.802 44.5967 106.113 44.758C105.423 44.9193 104.646 45 103.781 45H99.8867ZM103.121 42.8H103.781C104.411 42.8 104.91 42.712 105.277 42.536C105.658 42.36 105.937 42.052 106.113 41.612C106.289 41.1573 106.377 40.5413 106.377 39.764C106.362 38.84 106.171 38.136 105.805 37.652C105.453 37.168 104.763 36.926 103.737 36.926H103.121V42.8ZM112.127 45V27.18H115.361V34.638H119.013V27.18H122.247V45H119.013V36.948H115.361V45H112.127ZM124.731 45L128.295 27.18H131.771L135.335 45H132.321L131.617 40.886H128.515L127.789 45H124.731ZM128.845 38.818H131.265L130.055 31.338L128.845 38.818ZM136.688 45L140.252 37.036C139.518 36.6547 138.924 36.068 138.47 35.276C138.015 34.4693 137.788 33.4793 137.788 32.306C137.788 31.1327 138 30.172 138.426 29.424C138.851 28.6613 139.489 28.0967 140.34 27.73C141.205 27.3633 142.298 27.18 143.618 27.18H147.732V45H144.498V37.784H143.464C143.434 37.784 143.368 37.784 143.266 37.784C143.163 37.784 143.097 37.784 143.068 37.784L140.23 45H136.688ZM143.772 35.496H144.498V29.446H143.706C142.752 29.446 142.034 29.6807 141.55 30.15C141.066 30.6047 140.824 31.3233 140.824 32.306C140.824 33.318 141.036 34.1027 141.462 34.66C141.902 35.2173 142.672 35.496 143.772 35.496ZM6.182 71.242C4.92067 71.242 3.916 71.0073 3.168 70.538C2.42 70.0687 1.88467 69.394 1.562 68.514C1.23933 67.634 1.078 66.5927 1.078 65.39V58.724C1.078 57.5213 1.23933 56.4947 1.562 55.644C1.88467 54.7787 2.42 54.1187 3.168 53.664C3.916 53.2093 4.92067 52.982 6.182 52.982C7.47267 52.982 8.48467 53.2093 9.218 53.664C9.966 54.1187 10.5013 54.7787 10.824 55.644C11.1613 56.4947 11.33 57.5213 11.33 58.724V65.412C11.33 66.6 11.1613 67.634 10.824 68.514C10.5013 69.3793 9.966 70.054 9.218 70.538C8.48467 71.0073 7.47267 71.242 6.182 71.242ZM6.182 68.844C6.72467 68.844 7.12067 68.7267 7.37 68.492C7.634 68.2573 7.81 67.9347 7.898 67.524C7.986 67.1133 8.03 66.666 8.03 66.182V57.976C8.03 57.4773 7.986 57.03 7.898 56.634C7.81 56.238 7.634 55.93 7.37 55.71C7.12067 55.4753 6.72467 55.358 6.182 55.358C5.66867 55.358 5.28 55.4753 5.016 55.71C4.752 55.93 4.576 56.238 4.488 56.634C4.4 57.03 4.356 57.4773 4.356 57.976V66.182C4.356 66.666 4.39267 67.1133 4.466 67.524C4.554 67.9347 4.73 68.2573 4.994 68.492C5.258 68.7267 5.654 68.844 6.182 68.844ZM14.4425 71V53.18H22.7145V55.6H17.6765V60.66H18.3805C19.5832 60.66 20.5878 60.8287 21.3945 61.166C22.2158 61.4887 22.8318 62.0313 23.2425 62.794C23.6532 63.542 23.8585 64.554 23.8585 65.83C23.8585 66.8273 23.7338 67.6633 23.4845 68.338C23.2352 68.998 22.8612 69.526 22.3625 69.922C21.8785 70.318 21.2918 70.5967 20.6025 70.758C19.9132 70.9193 19.1285 71 18.2485 71H14.4425ZM17.6765 68.8H18.2705C18.8865 68.8 19.3852 68.712 19.7665 68.536C20.1478 68.36 20.4265 68.052 20.6025 67.612C20.7785 67.1573 20.8592 66.5413 20.8445 65.764C20.8298 64.84 20.6392 64.136 20.2725 63.652C19.9205 63.168 19.2385 62.926 18.2265 62.926H17.6765V68.8ZM40.8511 74.388L40.5651 71H26.7271V53.18H29.8511V68.756H32.5351V53.18H35.6371V68.756H38.1891V53.18H41.3351V68.756H43.0731V74.388H40.8511ZM45.7751 71V53.18H53.2551V55.468H49.0311V60.594H52.3531V62.86H49.0311V68.756H53.2991V71H45.7751ZM60.6413 71.242C59.3359 71.242 58.3093 70.9853 57.5613 70.472C56.8279 69.9587 56.3146 69.262 56.0213 68.382C55.7279 67.4873 55.5813 66.4607 55.5813 65.302V58.944C55.5813 57.7267 55.7279 56.6707 56.0213 55.776C56.3146 54.8813 56.8279 54.192 57.5613 53.708C58.3093 53.224 59.3359 52.982 60.6413 52.982C61.8733 52.982 62.8339 53.1947 63.5233 53.62C64.2273 54.0307 64.7259 54.6247 65.0193 55.402C65.3126 56.1793 65.4593 57.0813 65.4593 58.108V59.604H62.3353V58.064C62.3353 57.5653 62.3059 57.1107 62.2473 56.7C62.2033 56.2893 62.0639 55.9667 61.8293 55.732C61.6093 55.4827 61.2206 55.358 60.6633 55.358C60.1059 55.358 59.6953 55.49 59.4313 55.754C59.1819 56.0033 59.0206 56.348 58.9473 56.788C58.8739 57.2133 58.8373 57.6973 58.8373 58.24V65.984C58.8373 66.6293 58.8886 67.1647 58.9913 67.59C59.0939 68.0007 59.2773 68.316 59.5413 68.536C59.8199 68.7413 60.1939 68.844 60.6633 68.844C61.2059 68.844 61.5873 68.7193 61.8073 68.47C62.0419 68.206 62.1886 67.8613 62.2473 67.436C62.3059 67.0107 62.3353 66.534 62.3353 66.006V64.4H65.4593V65.83C65.4593 66.886 65.3199 67.8247 65.0413 68.646C64.7626 69.4527 64.2713 70.0907 63.5673 70.56C62.8779 71.0147 61.9026 71.242 60.6413 71.242ZM70.1681 71V55.578H67.3301V53.18H76.2181V55.578H73.4241V71H70.1681ZM78.3489 71V53.18H82.7269C83.5189 53.18 84.2302 53.2533 84.8609 53.4C85.5062 53.5467 86.0562 53.796 86.5109 54.148C86.9802 54.4853 87.3395 54.9473 87.5889 55.534C87.8382 56.1207 87.9629 56.8613 87.9629 57.756C87.9629 58.4747 87.8602 59.0907 87.6549 59.604C87.4642 60.1173 87.1782 60.528 86.7969 60.836C86.4155 61.1293 85.9389 61.3273 85.3669 61.43C86.0709 61.5473 86.6502 61.7967 87.1049 62.178C87.5742 62.5447 87.9189 63.0287 88.1389 63.63C88.3735 64.2313 88.4909 64.9573 88.4909 65.808C88.4909 66.6587 88.3809 67.414 88.1609 68.074C87.9555 68.7193 87.6402 69.262 87.2149 69.702C86.8042 70.1273 86.2835 70.45 85.6529 70.67C85.0369 70.89 84.3109 71 83.4749 71H78.3489ZM81.6049 68.712H82.8369C83.8195 68.712 84.4869 68.4773 84.8389 68.008C85.1909 67.524 85.3669 66.7833 85.3669 65.786C85.3669 65.0673 85.2789 64.488 85.1029 64.048C84.9415 63.5933 84.6629 63.256 84.2669 63.036C83.8855 62.816 83.3722 62.706 82.7269 62.706H81.6049V68.712ZM81.6049 60.462H82.7049C83.3502 60.462 83.8489 60.3667 84.2009 60.176C84.5529 59.9853 84.7949 59.692 84.9269 59.296C85.0735 58.9 85.1469 58.4013 85.1469 57.8C85.1469 57.1693 85.0369 56.6853 84.8169 56.348C84.6115 55.996 84.2962 55.7613 83.8709 55.644C83.4455 55.512 82.9029 55.446 82.2429 55.446H81.6049V60.462ZM91.255 71V53.18H98.735V55.468H94.511V60.594H97.833V62.86H94.511V68.756H98.779V71H91.255ZM101.369 71V53.18H104.603V60.638H108.255V53.18H111.489V71H108.255V62.948H104.603V71H101.369ZM114.92 71V53.18H118.154V60.638H121.806V53.18H125.04V71H121.806V62.948H118.154V71H114.92ZM127.524 71L131.088 53.18H134.564L138.128 71H135.114L134.41 66.886H131.308L130.582 71H127.524ZM131.638 64.818H134.058L132.848 57.338L131.638 64.818ZM139.481 71L143.045 63.036C142.311 62.6547 141.717 62.068 141.263 61.276C140.808 60.4693 140.581 59.4793 140.581 58.306C140.581 57.1327 140.793 56.172 141.219 55.424C141.644 54.6613 142.282 54.0967 143.133 53.73C143.998 53.3633 145.091 53.18 146.411 53.18H150.525V71H147.291V63.784H146.257C146.227 63.784 146.161 63.784 146.059 63.784C145.956 63.784 145.89 63.784 145.861 63.784L143.023 71H139.481ZM146.565 61.496H147.291V55.446H146.499C145.545 55.446 144.827 55.6807 144.343 56.15C143.859 56.6047 143.617 57.3233 143.617 58.306C143.617 59.318 143.829 60.1027 144.255 60.66C144.695 61.2173 145.465 61.496 146.565 61.496ZM6.182 97.242C4.92067 97.242 3.916 97.0073 3.168 96.538C2.42 96.0687 1.88467 95.394 1.562 94.514C1.23933 93.634 1.078 92.5927 1.078 91.39V84.724C1.078 83.5213 1.23933 82.4947 1.562 81.644C1.88467 80.7787 2.42 80.1187 3.168 79.664C3.916 79.2093 4.92067 78.982 6.182 78.982C7.47267 78.982 8.48467 79.2093 9.218 79.664C9.966 80.1187 10.5013 80.7787 10.824 81.644C11.1613 82.4947 11.33 83.5213 11.33 84.724V91.412C11.33 92.6 11.1613 93.634 10.824 94.514C10.5013 95.3793 9.966 96.054 9.218 96.538C8.48467 97.0073 7.47267 97.242 6.182 97.242ZM6.182 94.844C6.72467 94.844 7.12067 94.7267 7.37 94.492C7.634 94.2573 7.81 93.9347 7.898 93.524C7.986 93.1133 8.03 92.666 8.03 92.182V83.976C8.03 83.4773 7.986 83.03 7.898 82.634C7.81 82.238 7.634 81.93 7.37 81.71C7.12067 81.4753 6.72467 81.358 6.182 81.358C5.66867 81.358 5.28 81.4753 5.016 81.71C4.752 81.93 4.576 82.238 4.488 82.634C4.4 83.03 4.356 83.4773 4.356 83.976V92.182C4.356 92.666 4.39267 93.1133 4.466 93.524C4.554 93.9347 4.73 94.2573 4.994 94.492C5.258 94.7267 5.654 94.844 6.182 94.844ZM14.3985 97V79.18H19.6345C20.7052 79.18 21.5705 79.378 22.2305 79.774C22.9052 80.17 23.3965 80.7493 23.7045 81.512C24.0272 82.26 24.1885 83.1693 24.1885 84.24C24.1885 85.3987 23.9905 86.3373 23.5945 87.056C23.1985 87.76 22.6412 88.2733 21.9225 88.596C21.2185 88.9187 20.3825 89.08 19.4145 89.08H17.6545V97H14.3985ZM17.6545 86.792H18.8865C19.4732 86.792 19.9278 86.7113 20.2505 86.55C20.5878 86.374 20.8152 86.1027 20.9325 85.736C21.0645 85.3547 21.1305 84.8487 21.1305 84.218C21.1305 83.5727 21.0792 83.052 20.9765 82.656C20.8885 82.2453 20.6832 81.9447 20.3605 81.754C20.0525 81.5633 19.5612 81.468 18.8865 81.468H17.6545V86.792ZM26.704 97V79.18H34.316V81.578H29.938V97H26.704ZM34.2384 97L37.8024 79.18H41.2784L44.8424 97H41.8284L41.1244 92.886H38.0224L37.2964 97H34.2384ZM38.3524 90.818H40.7724L39.5624 83.338L38.3524 90.818ZM47.3385 97V79.18H50.5725V86.638H54.2245V79.18H57.4585V97H54.2245V88.948H50.5725V97H47.3385ZM60.8891 97V79.18H63.5511V90.422L68.4351 79.18H70.6131V97H67.9291V85.582L63.0231 97H60.8891ZM78.233 97.264C77.133 97.264 76.2384 97.0587 75.549 96.648C74.8744 96.2227 74.383 95.6287 74.075 94.866C73.767 94.0887 73.613 93.1867 73.613 92.16V91.544H76.649C76.649 91.6173 76.649 91.72 76.649 91.852C76.649 91.9693 76.649 92.0867 76.649 92.204C76.6637 93.0253 76.781 93.6487 77.001 94.074C77.221 94.4993 77.6464 94.712 78.277 94.712C78.7317 94.712 79.069 94.602 79.289 94.382C79.5237 94.162 79.6777 93.8467 79.751 93.436C79.839 93.0107 79.883 92.5047 79.883 91.918C79.883 91.0087 79.7144 90.29 79.377 89.762C79.0544 89.2193 78.4017 88.926 77.419 88.882C77.375 88.8673 77.3017 88.86 77.199 88.86C77.111 88.86 77.0084 88.86 76.891 88.86C76.7737 88.86 76.6637 88.86 76.561 88.86V86.704C76.649 86.704 76.737 86.704 76.825 86.704C76.913 86.704 77.001 86.704 77.089 86.704C77.1917 86.704 77.2724 86.704 77.331 86.704C78.3284 86.66 79.003 86.396 79.355 85.912C79.707 85.428 79.883 84.724 79.883 83.8C79.883 83.052 79.751 82.4653 79.487 82.04C79.2377 81.6147 78.783 81.402 78.123 81.402C77.507 81.402 77.067 81.622 76.803 82.062C76.5537 82.502 76.407 83.0813 76.363 83.8C76.363 83.8587 76.363 83.9687 76.363 84.13C76.363 84.2767 76.363 84.4307 76.363 84.592H73.327V83.734C73.327 82.722 73.5177 81.864 73.899 81.16C74.2804 80.4413 74.823 79.8987 75.527 79.532C76.2457 79.1507 77.1037 78.96 78.101 78.96C79.113 78.96 79.971 79.1507 80.675 79.532C81.3937 79.8987 81.9437 80.434 82.325 81.138C82.7064 81.8273 82.897 82.678 82.897 83.69C82.897 84.746 82.6697 85.6187 82.215 86.308C81.775 86.9973 81.2177 87.4373 80.543 87.628C80.9977 87.804 81.401 88.068 81.753 88.42C82.1197 88.7573 82.3984 89.212 82.589 89.784C82.7944 90.3413 82.897 91.038 82.897 91.874C82.897 92.9447 82.743 93.8907 82.435 94.712C82.127 95.5187 81.6284 96.1493 80.939 96.604C80.2644 97.044 79.3624 97.264 78.233 97.264ZM84.81 97L88.374 79.18H91.85L95.414 97H92.4L91.696 92.886H88.594L87.868 97H84.81ZM88.924 90.818H91.344L90.134 83.338L88.924 90.818ZM107.92 100.388L107.634 97H97.9321V79.18H101.166V94.756H105.17V79.18H108.404V94.756H110.142V100.388H107.92ZM112.879 97V79.18H115.541V90.422L120.425 79.18H122.603V97H119.919V85.582L115.013 97H112.879ZM124.899 97L128.463 89.036C127.729 88.6547 127.135 88.068 126.681 87.276C126.226 86.4693 125.999 85.4793 125.999 84.306C125.999 83.1327 126.211 82.172 126.637 81.424C127.062 80.6613 127.7 80.0967 128.551 79.73C129.416 79.3633 130.509 79.18 131.829 79.18H135.943V97H132.709V89.784H131.675C131.645 89.784 131.579 89.784 131.477 89.784C131.374 89.784 131.308 89.784 131.279 89.784L128.441 97H124.899ZM131.983 87.496H132.709V81.446H131.917C130.963 81.446 130.245 81.6807 129.761 82.15C129.277 82.6047 129.035 83.3233 129.035 84.306C129.035 85.318 129.247 86.1027 129.673 86.66C130.113 87.2173 130.883 87.496 131.983 87.496ZM9.24 122.142L5.258 117.06V115.872L9.24 110.79V113.98L7.216 116.466L9.24 118.952V122.142ZM4.73 122.142L0.748 117.06V115.872L4.73 110.79V113.98L2.684 116.466L4.73 118.952V122.142ZM11.477 123L15.041 105.18H18.517L22.081 123H19.067L18.363 118.886H15.261L14.535 123H11.477ZM15.591 116.818H18.011L16.801 109.338L15.591 116.818ZM29.3291 123.242C28.0238 123.242 26.9971 122.985 26.2491 122.472C25.5158 121.959 25.0024 121.262 24.7091 120.382C24.4158 119.487 24.2691 118.461 24.2691 117.302V110.944C24.2691 109.727 24.4158 108.671 24.7091 107.776C25.0024 106.881 25.5158 106.192 26.2491 105.708C26.9971 105.224 28.0238 104.982 29.3291 104.982C30.5611 104.982 31.5218 105.195 32.2111 105.62C32.9151 106.031 33.4138 106.625 33.7071 107.402C34.0004 108.179 34.1471 109.081 34.1471 110.108V111.604H31.0231V110.064C31.0231 109.565 30.9938 109.111 30.9351 108.7C30.8911 108.289 30.7518 107.967 30.5171 107.732C30.2971 107.483 29.9084 107.358 29.3511 107.358C28.7938 107.358 28.3831 107.49 28.1191 107.754C27.8698 108.003 27.7084 108.348 27.6351 108.788C27.5618 109.213 27.5251 109.697 27.5251 110.24V117.984C27.5251 118.629 27.5764 119.165 27.6791 119.59C27.7818 120.001 27.9651 120.316 28.2291 120.536C28.5078 120.741 28.8818 120.844 29.3511 120.844C29.8938 120.844 30.2751 120.719 30.4951 120.47C30.7298 120.206 30.8764 119.861 30.9351 119.436C30.9938 119.011 31.0231 118.534 31.0231 118.006V116.4H34.1471V117.83C34.1471 118.886 34.0078 119.825 33.7291 120.646C33.4504 121.453 32.9591 122.091 32.2551 122.56C31.5658 123.015 30.5904 123.242 29.3291 123.242ZM41.87 123.242C40.5646 123.242 39.538 122.985 38.79 122.472C38.0566 121.959 37.5433 121.262 37.25 120.382C36.9566 119.487 36.81 118.461 36.81 117.302V110.944C36.81 109.727 36.9566 108.671 37.25 107.776C37.5433 106.881 38.0566 106.192 38.79 105.708C39.538 105.224 40.5646 104.982 41.87 104.982C43.102 104.982 44.0626 105.195 44.752 105.62C45.456 106.031 45.9546 106.625 46.248 107.402C46.5413 108.179 46.688 109.081 46.688 110.108V111.604H43.564V110.064C43.564 109.565 43.5346 109.111 43.476 108.7C43.432 108.289 43.2926 107.967 43.058 107.732C42.838 107.483 42.4493 107.358 41.892 107.358C41.3346 107.358 40.924 107.49 40.66 107.754C40.4106 108.003 40.2493 108.348 40.176 108.788C40.1026 109.213 40.066 109.697 40.066 110.24V117.984C40.066 118.629 40.1173 119.165 40.22 119.59C40.3226 120.001 40.506 120.316 40.77 120.536C41.0486 120.741 41.4226 120.844 41.892 120.844C42.4346 120.844 42.816 120.719 43.036 120.47C43.2706 120.206 43.4173 119.861 43.476 119.436C43.5346 119.011 43.564 118.534 43.564 118.006V116.4H46.688V117.83C46.688 118.886 46.5486 119.825 46.27 120.646C45.9913 121.453 45.5 122.091 44.796 122.56C44.1066 123.015 43.1313 123.242 41.87 123.242ZM54.4548 123.242C53.1935 123.242 52.1888 123.007 51.4408 122.538C50.6928 122.069 50.1575 121.394 49.8348 120.514C49.5121 119.634 49.3508 118.593 49.3508 117.39V110.724C49.3508 109.521 49.5121 108.495 49.8348 107.644C50.1575 106.779 50.6928 106.119 51.4408 105.664C52.1888 105.209 53.1935 104.982 54.4548 104.982C55.7455 104.982 56.7575 105.209 57.4908 105.664C58.2388 106.119 58.7741 106.779 59.0968 107.644C59.4341 108.495 59.6028 109.521 59.6028 110.724V117.412C59.6028 118.6 59.4341 119.634 59.0968 120.514C58.7741 121.379 58.2388 122.054 57.4908 122.538C56.7575 123.007 55.7455 123.242 54.4548 123.242ZM54.4548 120.844C54.9975 120.844 55.3935 120.727 55.6428 120.492C55.9068 120.257 56.0828 119.935 56.1708 119.524C56.2588 119.113 56.3028 118.666 56.3028 118.182V109.976C56.3028 109.477 56.2588 109.03 56.1708 108.634C56.0828 108.238 55.9068 107.93 55.6428 107.71C55.3935 107.475 54.9975 107.358 54.4548 107.358C53.9415 107.358 53.5528 107.475 53.2888 107.71C53.0248 107.93 52.8488 108.238 52.7608 108.634C52.6728 109.03 52.6288 109.477 52.6288 109.976V118.182C52.6288 118.666 52.6655 119.113 52.7388 119.524C52.8268 119.935 53.0028 120.257 53.2668 120.492C53.5308 120.727 53.9268 120.844 54.4548 120.844ZM72.7253 126.388L72.4393 123H62.7373V105.18H65.9713V120.756H69.9753V105.18H73.2093V120.756H74.9473V126.388H72.7253ZM77.6839 123V105.18H80.3459V116.422L85.2299 105.18H87.4079V123H84.7239V111.582L79.8179 123H77.6839ZM89.9018 123L93.4658 105.18H96.9418L100.506 123H97.4918L96.7878 118.886H93.6858L92.9598 123H89.9018ZM94.0158 116.818H96.4358L95.2258 109.338L94.0158 116.818ZM113.012 126.388L112.726 123H103.024V105.18H106.258V120.756H110.262V105.18H113.496V120.756H115.234V126.388H113.012ZM117.971 123V105.18H120.633V116.422L125.517 105.18H127.695V123H125.011V111.582L120.105 123H117.971ZM129.99 123L133.554 115.036C132.821 114.655 132.227 114.068 131.772 113.276C131.318 112.469 131.09 111.479 131.09 110.306C131.09 109.133 131.303 108.172 131.728 107.424C132.154 106.661 132.792 106.097 133.642 105.73C134.508 105.363 135.6 105.18 136.92 105.18H141.034V123H137.8V115.784H136.766C136.737 115.784 136.671 115.784 136.568 115.784C136.466 115.784 136.4 115.784 136.37 115.784L133.532 123H129.99ZM137.074 113.496H137.8V107.446H137.008C136.055 107.446 135.336 107.681 134.852 108.15C134.368 108.605 134.126 109.323 134.126 110.306C134.126 111.318 134.339 112.103 134.764 112.66C135.204 113.217 135.974 113.496 137.074 113.496ZM149.204 123L153.142 113.98L149.446 105.18H152.504L155.738 113.65H155.892V105.18H158.51V113.65H158.686L161.898 105.18H164.978L161.282 113.98L165.22 123H162.228L158.708 114.222H158.51V123H155.892V114.222H155.716L152.196 123H149.204ZM167.317 123V105.18H174.797V107.468H170.573V112.594H173.895V114.86H170.573V120.756H174.841V123H167.317ZM177.387 123V105.18H182.623C183.693 105.18 184.559 105.378 185.219 105.774C185.893 106.17 186.385 106.749 186.693 107.512C187.015 108.26 187.177 109.169 187.177 110.24C187.177 111.399 186.979 112.337 186.583 113.056C186.187 113.76 185.629 114.273 184.911 114.596C184.207 114.919 183.371 115.08 182.403 115.08H180.643V123H177.387ZM180.643 112.792H181.875C182.461 112.792 182.916 112.711 183.239 112.55C183.576 112.374 183.803 112.103 183.921 111.736C184.053 111.355 184.119 110.849 184.119 110.218C184.119 109.573 184.067 109.052 183.965 108.656C183.877 108.245 183.671 107.945 183.349 107.754C183.041 107.563 182.549 107.468 181.875 107.468H180.643V112.792ZM191.43 123V107.578H188.592V105.18H197.48V107.578H194.686V123H191.43ZM199.611 123V105.18H203.989C204.781 105.18 205.492 105.253 206.123 105.4C206.768 105.547 207.318 105.796 207.773 106.148C208.242 106.485 208.602 106.947 208.851 107.534C209.1 108.121 209.225 108.861 209.225 109.756C209.225 110.475 209.122 111.091 208.917 111.604C208.726 112.117 208.44 112.528 208.059 112.836C207.678 113.129 207.201 113.327 206.629 113.43C207.333 113.547 207.912 113.797 208.367 114.178C208.836 114.545 209.181 115.029 209.401 115.63C209.636 116.231 209.753 116.957 209.753 117.808C209.753 118.659 209.643 119.414 209.423 120.074C209.218 120.719 208.902 121.262 208.477 121.702C208.066 122.127 207.546 122.45 206.915 122.67C206.299 122.89 205.573 123 204.737 123H199.611ZM202.867 120.712H204.099C205.082 120.712 205.749 120.477 206.101 120.008C206.453 119.524 206.629 118.783 206.629 117.786C206.629 117.067 206.541 116.488 206.365 116.048C206.204 115.593 205.925 115.256 205.529 115.036C205.148 114.816 204.634 114.706 203.989 114.706H202.867V120.712ZM202.867 112.462H203.967C204.612 112.462 205.111 112.367 205.463 112.176C205.815 111.985 206.057 111.692 206.189 111.296C206.336 110.9 206.409 110.401 206.409 109.8C206.409 109.169 206.299 108.685 206.079 108.348C205.874 107.996 205.558 107.761 205.133 107.644C204.708 107.512 204.165 107.446 203.505 107.446H202.867V112.462ZM1.342 149V131.18H11.616V149H8.404V133.49H4.554V149H1.342ZM19.7971 149.242C18.5357 149.242 17.5311 149.007 16.7831 148.538C16.0351 148.069 15.4997 147.394 15.1771 146.514C14.8544 145.634 14.6931 144.593 14.6931 143.39V136.724C14.6931 135.521 14.8544 134.495 15.1771 133.644C15.4997 132.779 16.0351 132.119 16.7831 131.664C17.5311 131.209 18.5357 130.982 19.7971 130.982C21.0877 130.982 22.0997 131.209 22.8331 131.664C23.5811 132.119 24.1164 132.779 24.4391 133.644C24.7764 134.495 24.9451 135.521 24.9451 136.724V143.412C24.9451 144.6 24.7764 145.634 24.4391 146.514C24.1164 147.379 23.5811 148.054 22.8331 148.538C22.0997 149.007 21.0877 149.242 19.7971 149.242ZM19.7971 146.844C20.3397 146.844 20.7357 146.727 20.9851 146.492C21.2491 146.257 21.4251 145.935 21.5131 145.524C21.6011 145.113 21.6451 144.666 21.6451 144.182V135.976C21.6451 135.477 21.6011 135.03 21.5131 134.634C21.4251 134.238 21.2491 133.93 20.9851 133.71C20.7357 133.475 20.3397 133.358 19.7971 133.358C19.2837 133.358 18.8951 133.475 18.6311 133.71C18.3671 133.93 18.1911 134.238 18.1031 134.634C18.0151 135.03 17.9711 135.477 17.9711 135.976V144.182C17.9711 144.666 18.0077 145.113 18.0811 145.524C18.1691 145.935 18.3451 146.257 18.6091 146.492C18.8731 146.727 19.2691 146.844 19.7971 146.844ZM26.7816 149V146.668C27.1922 146.683 27.5369 146.661 27.8156 146.602C28.1089 146.529 28.3509 146.375 28.5416 146.14C28.7469 145.905 28.9156 145.546 29.0476 145.062C29.1796 144.563 29.2896 143.896 29.3776 143.06C29.4656 142.224 29.5609 141.161 29.6636 139.87L30.2356 131.18H38.9036V149H35.6696V133.622H33.1176L32.7216 140.266C32.6336 141.571 32.5309 142.723 32.4136 143.72C32.3109 144.717 32.1422 145.568 31.9076 146.272C31.6876 146.961 31.3722 147.519 30.9616 147.944C30.5509 148.369 30.0082 148.67 29.3336 148.846C28.6589 149.007 27.8082 149.059 26.7816 149ZM42.3601 149V131.18H45.0221V142.422L49.9061 131.18H52.0841V149H49.4001V137.582L44.4941 149H42.3601ZM57.1117 149V133.578H54.2737V131.18H63.1617V133.578H60.3677V149H57.1117ZM65.3364 149V131.18H67.9984V142.422L72.8824 131.18H75.0604V149H72.3764V137.582L67.4704 149H65.3364ZM85.2763 149V141.212C84.8363 141.3 84.433 141.366 84.0663 141.41C83.6996 141.454 83.3403 141.476 82.9883 141.476C81.4336 141.476 80.2383 141.117 79.4023 140.398C78.5663 139.679 78.1483 138.587 78.1483 137.12V131.18H81.4043V136.68C81.4043 137.325 81.4703 137.853 81.6023 138.264C81.749 138.675 81.9836 138.975 82.3063 139.166C82.6436 139.342 83.0836 139.43 83.6263 139.43C83.861 139.43 84.1176 139.415 84.3963 139.386C84.6896 139.342 84.983 139.291 85.2763 139.232V131.18H88.5103V149H85.2763ZM91.8995 149V131.18H99.3795V133.468H95.1555V138.594H98.4775V140.86H95.1555V146.756H99.4235V149H91.8995ZM106.766 149.242C105.46 149.242 104.434 148.985 103.686 148.472C102.952 147.959 102.439 147.262 102.146 146.382C101.852 145.487 101.706 144.461 101.706 143.302V136.944C101.706 135.727 101.852 134.671 102.146 133.776C102.439 132.881 102.952 132.192 103.686 131.708C104.434 131.224 105.46 130.982 106.766 130.982C107.998 130.982 108.958 131.195 109.648 131.62C110.352 132.031 110.85 132.625 111.144 133.402C111.437 134.179 111.584 135.081 111.584 136.108V137.604H108.46V136.064C108.46 135.565 108.43 135.111 108.372 134.7C108.328 134.289 108.188 133.967 107.954 133.732C107.734 133.483 107.345 133.358 106.788 133.358C106.23 133.358 105.82 133.49 105.556 133.754C105.306 134.003 105.145 134.348 105.072 134.788C104.998 135.213 104.962 135.697 104.962 136.24V143.984C104.962 144.629 105.013 145.165 105.116 145.59C105.218 146.001 105.402 146.316 105.666 146.536C105.944 146.741 106.318 146.844 106.788 146.844C107.33 146.844 107.712 146.719 107.932 146.47C108.166 146.206 108.313 145.861 108.372 145.436C108.43 145.011 108.46 144.534 108.46 144.006V142.4H111.584V143.83C111.584 144.886 111.444 145.825 111.166 146.646C110.887 147.453 110.396 148.091 109.692 148.56C109.002 149.015 108.027 149.242 106.766 149.242ZM114.555 149V131.18H117.789V138.66H118.449L121.331 131.18H124.565L121.177 139.584L124.829 149H121.529L118.449 140.794H117.789V149H114.555ZM127.117 149V131.18H129.779V142.422L134.663 131.18H136.841V149H134.157V137.582L129.251 149H127.117ZM139.115 149L142.701 139.54L139.225 131.18H142.261L144.571 136.702L146.595 131.18H149.411L145.979 140.156L149.675 149H146.639L144.109 143.016L141.909 149H139.115ZM1.342 175V157.18H6.578C7.64867 157.18 8.514 157.378 9.174 157.774C9.84867 158.17 10.34 158.749 10.648 159.512C10.9707 160.26 11.132 161.169 11.132 162.24C11.132 163.399 10.934 164.337 10.538 165.056C10.142 165.76 9.58467 166.273 8.866 166.596C8.162 166.919 7.326 167.08 6.358 167.08H4.598V175H1.342ZM4.598 164.792H5.83C6.41667 164.792 6.87133 164.711 7.194 164.55C7.53133 164.374 7.75867 164.103 7.876 163.736C8.008 163.355 8.074 162.849 8.074 162.218C8.074 161.573 8.02267 161.052 7.92 160.656C7.832 160.245 7.62667 159.945 7.304 159.754C6.996 159.563 6.50467 159.468 5.83 159.468H4.598V164.792ZM13.6036 175V157.18H21.0836V159.468H16.8596V164.594H20.1816V166.86H16.8596V172.756H21.1276V175H13.6036ZM23.6737 175V157.18H33.9477V175H30.7357V159.49H26.8857V175H23.6737ZM37.2888 175V157.18H42.5248C43.5955 157.18 44.4608 157.378 45.1208 157.774C45.7955 158.17 46.2868 158.749 46.5948 159.512C46.9175 160.26 47.0788 161.169 47.0788 162.24C47.0788 163.399 46.8808 164.337 46.4848 165.056C46.0888 165.76 45.5315 166.273 44.8128 166.596C44.1088 166.919 43.2728 167.08 42.3048 167.08H40.5448V175H37.2888ZM40.5448 164.792H41.7768C42.3635 164.792 42.8181 164.711 43.1408 164.55C43.4781 164.374 43.7055 164.103 43.8228 163.736C43.9548 163.355 44.0208 162.849 44.0208 162.218C44.0208 161.573 43.9695 161.052 43.8668 160.656C43.7788 160.245 43.5735 159.945 43.2508 159.754C42.9428 159.563 42.4515 159.468 41.7768 159.468H40.5448V164.792ZM49.5504 175V157.18H57.0304V159.468H52.8064V164.594H56.1284V166.86H52.8064V172.756H57.0744V175H49.5504ZM64.4165 175.242C63.1112 175.242 62.0845 174.985 61.3365 174.472C60.6032 173.959 60.0898 173.262 59.7965 172.382C59.5032 171.487 59.3565 170.461 59.3565 169.302V162.944C59.3565 161.727 59.5032 160.671 59.7965 159.776C60.0898 158.881 60.6032 158.192 61.3365 157.708C62.0845 157.224 63.1112 156.982 64.4165 156.982C65.6485 156.982 66.6092 157.195 67.2985 157.62C68.0025 158.031 68.5012 158.625 68.7945 159.402C69.0878 160.179 69.2345 161.081 69.2345 162.108V163.604H66.1105V162.064C66.1105 161.565 66.0812 161.111 66.0225 160.7C65.9785 160.289 65.8392 159.967 65.6045 159.732C65.3845 159.483 64.9958 159.358 64.4385 159.358C63.8812 159.358 63.4705 159.49 63.2065 159.754C62.9572 160.003 62.7958 160.348 62.7225 160.788C62.6492 161.213 62.6125 161.697 62.6125 162.24V169.984C62.6125 170.629 62.6638 171.165 62.7665 171.59C62.8692 172.001 63.0525 172.316 63.3165 172.536C63.5952 172.741 63.9692 172.844 64.4385 172.844C64.9812 172.844 65.3625 172.719 65.5825 172.47C65.8172 172.206 65.9638 171.861 66.0225 171.436C66.0812 171.011 66.1105 170.534 66.1105 170.006V168.4H69.2345V169.83C69.2345 170.886 69.0952 171.825 68.8165 172.646C68.5378 173.453 68.0465 174.091 67.3425 174.56C66.6532 175.015 65.6778 175.242 64.4165 175.242ZM76.9574 175.242C75.652 175.242 74.6254 174.985 73.8774 174.472C73.144 173.959 72.6307 173.262 72.3374 172.382C72.044 171.487 71.8974 170.461 71.8974 169.302V162.944C71.8974 161.727 72.044 160.671 72.3374 159.776C72.6307 158.881 73.144 158.192 73.8774 157.708C74.6254 157.224 75.652 156.982 76.9574 156.982C78.1894 156.982 79.15 157.195 79.8394 157.62C80.5434 158.031 81.042 158.625 81.3354 159.402C81.6287 160.179 81.7754 161.081 81.7754 162.108V163.604H78.6514V162.064C78.6514 161.565 78.622 161.111 78.5634 160.7C78.5194 160.289 78.38 159.967 78.1454 159.732C77.9254 159.483 77.5367 159.358 76.9794 159.358C76.422 159.358 76.0114 159.49 75.7474 159.754C75.498 160.003 75.3367 160.348 75.2634 160.788C75.19 161.213 75.1534 161.697 75.1534 162.24V169.984C75.1534 170.629 75.2047 171.165 75.3074 171.59C75.41 172.001 75.5934 172.316 75.8574 172.536C76.136 172.741 76.51 172.844 76.9794 172.844C77.522 172.844 77.9034 172.719 78.1234 172.47C78.358 172.206 78.5047 171.861 78.5634 171.436C78.622 171.011 78.6514 170.534 78.6514 170.006V168.4H81.7754V169.83C81.7754 170.886 81.636 171.825 81.3574 172.646C81.0787 173.453 80.5874 174.091 79.8834 174.56C79.194 175.015 78.2187 175.242 76.9574 175.242ZM84.7462 175V157.18H87.4082V168.422L92.2922 157.18H94.4702V175H91.7862V163.582L86.8802 175H84.7462ZM97.9101 175V157.18H100.572V168.422L105.456 157.18H107.634V175H104.95V163.582L100.044 175H97.9101ZM103.036 155.772C101.98 155.772 101.181 155.486 100.638 154.914C100.11 154.327 99.8461 153.543 99.8461 152.56H101.562C101.562 153.088 101.672 153.491 101.892 153.77C102.112 154.049 102.493 154.188 103.036 154.188C103.564 154.188 103.938 154.049 104.158 153.77C104.378 153.477 104.488 153.073 104.488 152.56H106.204C106.204 153.543 105.933 154.327 105.39 154.914C104.862 155.486 104.077 155.772 103.036 155.772ZM124.938 174.142L120.956 169.06V167.872L124.938 162.79V165.98L122.914 168.466L124.938 170.952V174.142ZM120.428 174.142L116.446 169.06V167.872L120.428 162.79V165.98L118.382 168.466L120.428 170.952V174.142ZM128.121 175V157.18H131.355V164.638H135.007V157.18H138.241V175H135.007V166.948H131.355V175H128.121ZM146.467 175.242C145.206 175.242 144.201 175.007 143.453 174.538C142.705 174.069 142.17 173.394 141.847 172.514C141.525 171.634 141.363 170.593 141.363 169.39V162.724C141.363 161.521 141.525 160.495 141.847 159.644C142.17 158.779 142.705 158.119 143.453 157.664C144.201 157.209 145.206 156.982 146.467 156.982C147.758 156.982 148.77 157.209 149.503 157.664C150.251 158.119 150.787 158.779 151.109 159.644C151.447 160.495 151.615 161.521 151.615 162.724V169.412C151.615 170.6 151.447 171.634 151.109 172.514C150.787 173.379 150.251 174.054 149.503 174.538C148.77 175.007 147.758 175.242 146.467 175.242ZM146.467 172.844C147.01 172.844 147.406 172.727 147.655 172.492C147.919 172.257 148.095 171.935 148.183 171.524C148.271 171.113 148.315 170.666 148.315 170.182V161.976C148.315 161.477 148.271 161.03 148.183 160.634C148.095 160.238 147.919 159.93 147.655 159.71C147.406 159.475 147.01 159.358 146.467 159.358C145.954 159.358 145.565 159.475 145.301 159.71C145.037 159.93 144.861 160.238 144.773 160.634C144.685 161.03 144.641 161.477 144.641 161.976V170.182C144.641 170.666 144.678 171.113 144.751 171.524C144.839 171.935 145.015 172.257 145.279 172.492C145.543 172.727 145.939 172.844 146.467 172.844ZM154.64 175L154.948 157.18H158.314L160.844 169.522L163.484 157.18H166.74L167.07 175H164.65L164.386 162.614L161.856 175H159.898L157.324 162.57L157.082 175H154.64ZM169.459 175L173.023 157.18H176.499L180.063 175H177.049L176.345 170.886H173.243L172.517 175H169.459ZM173.573 168.818H175.993L174.783 161.338L173.573 168.818ZM182.515 175V157.18H187.751C188.822 157.18 189.687 157.378 190.347 157.774C191.022 158.17 191.513 158.749 191.821 159.512C192.144 160.26 192.305 161.169 192.305 162.24C192.305 163.399 192.107 164.337 191.711 165.056C191.315 165.76 190.758 166.273 190.039 166.596C189.335 166.919 188.499 167.08 187.531 167.08H185.771V175H182.515ZM185.771 164.792H187.003C187.59 164.792 188.045 164.711 188.367 164.55C188.705 164.374 188.932 164.103 189.049 163.736C189.181 163.355 189.247 162.849 189.247 162.218C189.247 161.573 189.196 161.052 189.093 160.656C189.005 160.245 188.8 159.945 188.477 159.754C188.169 159.563 187.678 159.468 187.003 159.468H185.771V164.792ZM192.844 175L196.408 157.18H199.884L203.448 175H200.434L199.73 170.886H196.628L195.902 175H192.844ZM196.958 168.818H199.378L198.168 161.338L196.958 168.818ZM205.944 175V157.18H209.178V164.638H212.83V157.18H216.064V175H212.83V166.948H209.178V175H205.944ZM6.292 205.092C5.38267 205.092 4.63467 204.887 4.048 204.476C3.46133 204.08 2.992 203.523 2.64 202.804C2.288 202.1 2.024 201.286 1.848 200.362C1.68667 199.423 1.584 198.419 1.54 197.348C1.496 196.277 1.474 195.192 1.474 194.092C1.474 192.948 1.496 191.833 1.54 190.748C1.584 189.663 1.68667 188.651 1.848 187.712C2.024 186.773 2.288 185.952 2.64 185.248C2.992 184.544 3.46133 183.994 4.048 183.598C4.63467 183.202 5.38267 183.004 6.292 183.004V185.072C5.83733 185.072 5.47067 185.307 5.192 185.776C4.928 186.245 4.73 186.891 4.598 187.712C4.466 188.533 4.378 189.494 4.334 190.594C4.30467 191.679 4.29 192.845 4.29 194.092C4.29 195.368 4.30467 196.549 4.334 197.634C4.378 198.719 4.466 199.665 4.598 200.472C4.74467 201.279 4.95 201.902 5.214 202.342C5.478 202.797 5.83733 203.031 6.292 203.046V205.092ZM9.02739 201V183.18H19.3014V201H16.0894V185.49H12.2394V201H9.02739ZM21.7405 201L25.3045 183.18H28.7805L32.3445 201H29.3305L28.6265 196.886H25.5245L24.7985 201H21.7405ZM25.8545 194.818H28.2745L27.0645 187.338L25.8545 194.818ZM34.7526 201L35.0606 183.18H38.4266L40.9566 195.522L43.5966 183.18H46.8526L47.1826 201H44.7626L44.4986 188.614L41.9686 201H40.0106L37.4366 188.57L37.1946 201H34.7526ZM49.3742 201L52.9382 193.036C52.2049 192.655 51.6109 192.068 51.1562 191.276C50.7015 190.469 50.4742 189.479 50.4742 188.306C50.4742 187.133 50.6869 186.172 51.1122 185.424C51.5375 184.661 52.1755 184.097 53.0262 183.73C53.8915 183.363 54.9842 183.18 56.3042 183.18H60.4182V201H57.1842V193.784H56.1502C56.1209 193.784 56.0549 193.784 55.9522 193.784C55.8495 193.784 55.7835 193.784 55.7542 193.784L52.9162 201H49.3742ZM56.4582 191.496H57.1842V185.446H56.3922C55.4389 185.446 54.7202 185.681 54.2362 186.15C53.7522 186.605 53.5102 187.323 53.5102 188.306C53.5102 189.318 53.7229 190.103 54.1482 190.66C54.5882 191.217 55.3582 191.496 56.4582 191.496ZM65.4416 201V185.578H62.6036V183.18H71.4916V185.578H68.6976V201H65.4416ZM73.6663 201V183.18H76.9003V190.66H77.6923C78.895 190.66 79.8996 190.829 80.7063 191.166C81.513 191.489 82.1216 192.031 82.5323 192.794C82.943 193.542 83.1483 194.554 83.1483 195.83C83.1483 196.827 83.0236 197.663 82.7743 198.338C82.525 198.998 82.151 199.526 81.6523 199.922C81.1683 200.318 80.5816 200.597 79.8923 200.758C79.203 200.919 78.4256 201 77.5603 201H73.6663ZM76.9003 198.8H77.5603C78.191 198.8 78.6896 198.712 79.0563 198.536C79.4376 198.36 79.7163 198.052 79.8923 197.612C80.0683 197.157 80.1563 196.541 80.1563 195.764C80.1416 194.84 79.951 194.136 79.5843 193.652C79.2323 193.168 78.543 192.926 77.5163 192.926H76.9003V198.8ZM91.916 201V183.18H94.578V194.422L99.462 183.18H101.64V201H98.956V189.582L94.05 201H91.916ZM104.992 201L105.3 183.18H108.666L111.196 195.522L113.836 183.18H117.092L117.422 201H115.002L114.738 188.614L112.208 201H110.25L107.676 188.57L107.434 201H104.992ZM120.713 201V183.18H128.193V185.468H123.969V190.594H127.291V192.86H123.969V198.756H128.237V201H120.713ZM130.828 201V183.18H134.062V190.638H137.714V183.18H140.948V201H137.714V192.948H134.062V201H130.828ZM143.696 205.092V203.024C144.151 203.024 144.51 202.797 144.774 202.342C145.053 201.887 145.258 201.257 145.39 200.45C145.522 199.629 145.61 198.675 145.654 197.59C145.698 196.505 145.72 195.331 145.72 194.07C145.72 192.809 145.698 191.635 145.654 190.55C145.61 189.45 145.522 188.497 145.39 187.69C145.273 186.869 145.075 186.231 144.796 185.776C144.532 185.307 144.166 185.065 143.696 185.05V183.004C144.606 183.004 145.354 183.202 145.94 183.598C146.542 183.979 147.018 184.529 147.37 185.248C147.722 185.952 147.979 186.773 148.14 187.712C148.302 188.636 148.404 189.641 148.448 190.726C148.492 191.797 148.514 192.911 148.514 194.07C148.514 195.17 148.492 196.255 148.448 197.326C148.404 198.397 148.302 199.401 148.14 200.34C147.979 201.279 147.722 202.1 147.37 202.804C147.018 203.523 146.542 204.08 145.94 204.476C145.354 204.887 144.606 205.092 143.696 205.092ZM151.263 200.142V196.952L153.419 194.444L151.263 191.98V188.79L155.355 193.872V195.06L151.263 200.142ZM155.795 200.142V196.952L157.929 194.444L155.795 191.98V188.79L159.887 193.872V195.06L155.795 200.142ZM162.665 200.142V196.952L164.821 194.444L162.665 191.98V188.79L166.757 193.872V195.06L162.665 200.142ZM167.197 200.142V196.952L169.331 194.444L167.197 191.98V188.79L171.289 193.872V195.06L167.197 200.142ZM173.979 201V197.986H176.883V201H173.979Z" fill="#C8082B"/>
</svg>
